<svg width="165" height="38" viewBox="0 0 43.656 10.054" xmlns="http://www.w3.org/2000/svg"><path d="M1.323 5.121V1.323h.721l1.502 2.536V1.323h.688V5.12h-.743l-1.48-2.477V5.12zm6.899 0h-.78l-.184-.474H6.077l-.175.474h-.764l1.197-2.948h.658zm-1.57-2.156q-.012.073-.027.13-.012.054-.03.114-.018.057-.043.127-.022.067-.06.166l-.187.541h.718l-.198-.557-.062-.163-.04-.124q-.018-.057-.033-.112l-.027-.122zm2.952 1.127q.06.244.195.368.138.122.358.122.1 0 .19-.018t.158-.057q.068-.041.108-.104.04-.064.04-.152 0-.086-.053-.148-.052-.062-.172-.101-.05-.018-.163-.047l-.293-.072q-.228-.057-.408-.132-.18-.078-.276-.161-.29-.254-.29-.617 0-.176.073-.331.072-.156.215-.27.143-.116.35-.181.21-.067.481-.067.53 0 .829.215.298.215.34.668l-.723.031q-.043-.168-.148-.251-.105-.083-.303-.083-.2 0-.31.062-.108.062-.108.171 0 .05.025.088.028.036.093.07t.172.067q.11.031.276.07.215.052.375.107.16.051.266.106.215.114.343.31.13.198.13.48 0 .127-.04.251-.038.122-.11.233-.073.11-.18.197-.106.088-.24.145-.264.11-.652.11-.558 0-.866-.25-.305-.25-.388-.764zm2.854 1.029V2.173h.72v1.109h1.047v-1.11h.721v2.949h-.72V3.885h-1.047v1.236zm3.744 0V2.173h.721V5.12zm1.973-2.948h1.132q.18 0 .325.013.145.013.243.041.205.06.363.187.16.127.268.313.108.184.163.425.057.238.057.52 0 .392-.115.677-.113.285-.303.472-.067.067-.158.121-.09.055-.21.096-.117.039-.268.062-.147.021-.333.021h-1.164zm.721.603v1.741h.366q.183 0 .298-.02.117-.024.187-.068.073-.046.113-.116.04-.07.07-.163.055-.174.055-.503 0-.228-.03-.378-.027-.153-.085-.25-.055-.095-.138-.144-.08-.05-.185-.073-.057-.013-.173-.018-.112-.008-.285-.008zm8.417 2.345h-.806l-.32-.863H24.72l-.303.863h-.786l1.43-3.798h.783zM25.95 3.618l-.506-1.409-.495 1.41zm2.257 1.503V2.173h.721v1.109h1.047v-1.11h.72v2.949h-.72V3.885h-1.047v1.236zm5.348-.909l.017-.127q.01-.06.023-.122.012-.062.03-.132.017-.073.045-.169l.46-1.49h1.007v2.949h-.656V2.994h-.01l-.64 2.127h-.57l-.643-2.127h-.01v2.127h-.655V2.173h1.006l.466 1.5q.025.093.042.165.018.07.03.133.013.06.023.119l.022.122zm2.833.909V2.173h2.273v.603h-1.552v.498h1.444v.603H37.11v.64h1.607v.604zm3.394-2.948h1.132q.18 0 .325.013.145.013.243.041.205.06.363.187.16.127.268.313.108.184.163.425.057.238.057.52 0 .392-.115.677-.113.285-.303.472-.067.067-.158.121-.09.055-.21.096-.117.039-.268.062-.147.021-.333.021h-1.164zm.721.603v1.741h.366q.183 0 .298-.02.117-.024.187-.068.073-.046.113-.116.04-.07.07-.163.055-.174.055-.503 0-.228-.03-.378-.027-.153-.085-.25-.055-.095-.138-.144-.08-.05-.185-.073-.057-.013-.173-.018-.112-.008-.285-.008z" style="font-variant-caps:small-caps;font-variant-east-asian:normal;font-variant-ligatures:normal;font-variant-numeric:normal" aria-label="Nashid Ahmed"/><path d="M1.374 8.738V6.414h1.491v.393H1.813v.55h.908v.393h-.908v.988zm2.002-2.324h.439v1.259q0 .3.016.388.028.143.134.23.106.085.29.085.187 0 .282-.08.095-.083.114-.202.02-.119.02-.394V6.414h.439v1.22q0 .419-.036.592-.036.172-.132.291-.095.12-.255.19t-.418.07q-.312 0-.473-.076-.16-.077-.254-.2-.093-.123-.123-.258-.043-.2-.043-.59zm2.36 2.324V6.433h.44v1.913h1.09v.392zm2.007 0V6.433h.44v1.913h1.09v.392zm2.823-.756l.428-.045q.038.23.155.338.119.108.32.108.211 0 .318-.095.108-.097.108-.226 0-.082-.046-.139-.044-.059-.157-.101-.077-.029-.351-.102-.353-.093-.496-.23-.2-.192-.2-.467 0-.178.094-.332.094-.155.27-.236.179-.08.43-.08.409 0 .615.191.208.192.218.512l-.439.02q-.028-.178-.122-.256-.092-.08-.277-.08-.191 0-.3.085-.07.054-.07.144 0 .082.066.141.083.075.403.155.32.081.474.168.154.086.24.237.087.149.087.369 0 .2-.104.374-.103.174-.293.26-.19.084-.473.084-.413 0-.634-.203-.22-.204-.264-.594zm2.78.756v-1.93h-.645v-.394h1.728v.393h-.644v1.93zm3.254 0h-.477l-.19-.528h-.87l-.179.528h-.465l.847-2.324h.464zm-.808-.92l-.3-.862-.293.862zm2.584.065l.426.145q-.098.38-.326.566-.227.183-.577.183-.433 0-.712-.315-.28-.317-.28-.865 0-.58.281-.9.28-.323.737-.323.4 0 .648.252.149.15.223.428l-.435.111q-.038-.18-.161-.285-.122-.105-.297-.105-.242 0-.393.186-.15.185-.15.6 0 .441.149.628.148.187.385.187.175 0 .301-.118t.181-.375zm.96.855V6.414h.439v1.032l.887-1.032h.59l-.819.905.863 1.419h-.568l-.597-1.09-.356.388v.702zm3.331-2.324h.802q.272 0 .414.044.191.06.328.214.136.154.208.378.07.222.07.548 0 .287-.066.495-.082.253-.233.41-.114.119-.308.186-.146.049-.389.049h-.826zm.439.393v1.54h.328q.184 0 .265-.023.107-.028.177-.097.07-.068.115-.223.045-.157.045-.427t-.045-.413q-.044-.144-.124-.225-.08-.081-.203-.11-.092-.022-.36-.022zm1.908 1.931V6.414h1.612v.393h-1.173v.515h1.091v.392h-1.091v.632h1.214v.392zm2.734 0l-.777-2.324h.476l.55 1.72.533-1.72h.465l-.778 2.324zm1.624 0V6.414h1.612v.393h-1.173v.515h1.092v.392H29.81v.632h1.215v.392zm2.191 0V6.433h.439v1.913h1.092v.392zM33.47 7.59q0-.355.099-.596.074-.177.202-.318.129-.141.281-.21.204-.092.469-.092.48 0 .768.319.29.319.29.886 0 .563-.287.881-.286.317-.765.317-.485 0-.771-.315-.287-.317-.287-.872zm.452-.016q0 .395.17.6.17.202.433.202t.43-.2q.17-.204.17-.608 0-.4-.165-.596-.163-.197-.435-.197t-.437.2q-.166.198-.166.6zm2.148 1.164V6.414h.705q.4 0 .522.035.187.052.313.228.126.175.126.452 0 .214-.073.36t-.185.23q-.111.082-.227.109-.157.033-.455.033h-.287v.877zm.44-1.93v.659h.24q.26 0 .347-.037.087-.036.136-.114.05-.078.05-.18 0-.128-.07-.21-.069-.082-.176-.103-.078-.016-.315-.016zm1.74 1.93V6.414h1.612v.393h-1.173v.515h1.091v.392h-1.09v.632h1.214v.392zm2.18 0V6.414h.924q.348 0 .506.064.158.061.253.221t.095.367q0 .261-.144.432-.144.17-.43.214.143.09.235.195.093.106.25.378l.266.453h-.525l-.318-.506q-.169-.27-.231-.34-.062-.072-.132-.097-.07-.027-.221-.027h-.09v.97zm.439-1.341h.325q.316 0 .394-.029.079-.028.123-.098.045-.07.045-.174 0-.118-.06-.189-.057-.073-.164-.092-.054-.008-.32-.008h-.343z" aria-label="FULL STACK DEVELOPER"/></svg>