<svg width="7263" height="2211" viewBox="0 0 7263 2211" fill="none" xmlns="http://www.w3.org/2000/svg"><path d="M1994.56 1694.23l-575.59 377.62-82.03-65.08-17.63 111.18-138.98 92.21-127.46-77.97-19.66-15.59-98.301-77.97-1.356 30.51-574.233-376.95L0 1408.13 824.402 0l359.318 284.066 810.84 1410.164z" fill="#000"/><path d="M7263 2037.27h-319.32l-169.49-133.55v133.55h-494.24l-132.88-105.08v105.08h-267.11l-101.7-80.67c-21.02 18.3-43.39 33.89-67.79 46.78h-.68c-60.34 30.5-128.14 46.1-195.26 46.1-67.11 0-134.91-15.6-195.25-46.1l-.68-.68c-14.91-8.14-29.15-16.95-42.71-26.44l-.68-.68c-8.81-6.1-16.95-12.88-25.08-20.34l-213.56-169.49v250.17h-266.44l-359.32-284.07V1614.9l-136.95 421.02h-253.55l-90.85-244.07-80 244.07h-252.88l-157.29-124.07v124.07h-585.08l-10.85-8.82v8.82h-211.52l-200.68-157.97v158.65h-263.72l-359.32-284.07v-705.08h147.11l-147.11-115.932v-705.08h573.55v.678h822.37l142.37 111.864V227.116h266.44l110.51 87.457c23.05-21.017 48.81-39.322 77.29-53.559 61.01-31.186 128.81-46.779 196.61-46.101 58.98-.678 116.61 10.169 171.52 32.542h.68c50.17 21.017 95.59 54.237 130.84 95.592l5.43 6.78V189.828h259.66l221.69 174.914c25.09-5.423 50.85-8.135 76.61-8.135 54.24 0 109.15 12.203 157.97 35.254 47.45 23.728 87.45 59.66 115.25 104.406l.68.678c9.49 16.949 17.62 34.576 23.73 52.203v-359.32h259.66l317.96 250.846 33.22-21.017c33.9-21.695 71.19-37.288 109.83-46.779 40-10.17 82.03-15.593 124.07-15.593h2.03c88.81 0 158.64 21.694 208.81 64.406l76.61 61.017v-292.88h259.66v2.712l357.97 281.354h1.35v581.696l349.15 275.93-295.59 320.67L7263 2037.27z" fill="#000"/><path d="M2344.16 746.024v133.421H1853.3v-611.31h479.46v133.421h-308.2v103.098h271.57v129.175h-271.57V745.66l319.6.364zm226.26-340.461h-187.76V268.504h547.75v137.059h-187.15v474.251h-172.84V405.563zm993.83-137.178v611.31h-172.96v-238.46H3155.5v238.46h-172.84v-611.31h172.84V497.99h235.79V268.385h172.96zm531.86 292.548h152.83v253.258a402.312 402.312 0 01-120.57 57.613 481.055 481.055 0 01-136.21 20.014 364.976 364.976 0 01-172.96-40.512 303.197 303.197 0 01-120.44-113.166 330.365 330.365 0 01-43.67-164.168 330.368 330.368 0 0143.67-164.168 301.439 301.439 0 01121.29-113.043 372.726 372.726 0 01175.63-40.634c52.64-.83 104.9 8.946 153.68 28.746a298.534 298.534 0 01113.53 82.964l-110.02 99.58a194.05 194.05 0 00-148.46-68.044 171.915 171.915 0 00-126.63 47.546c-32.34 31.778-48.51 74.15-48.51 127.114a184.8 184.8 0 0021.83 90.363 156.46 156.46 0 0060.65 61.979 179.602 179.602 0 0089.87 22.318 221.86 221.86 0 0093.52-20.134l.97-167.626zm254.98-329.304h165.92v648.062h-165.92V231.629zm373.71 624.406a233.872 233.872 0 01-96.06-88.112 233.803 233.803 0 01-33.96-125.847 232.952 232.952 0 0134.11-124.89 232.879 232.879 0 0195.55-87.37 320.923 320.923 0 01275.45 0 231.577 231.577 0 0195.21 86.481 251.313 251.313 0 0134.1 126.386c0 44.4-11.77 88.008-34.1 126.386a233.532 233.532 0 01-95.21 87.33 316.804 316.804 0 01-275.09 0v-.364zm208.74-130.51a117.841 117.841 0 0028.02-83.449 115.069 115.069 0 00-28.02-82.114 101.515 101.515 0 00-143.24 0 115.566 115.566 0 00-27.9 82.114 118.35 118.35 0 0027.9 83.449 100.299 100.299 0 00110.46 22.255 100.194 100.194 0 0032.78-22.255zm687.73-297.403a216.009 216.009 0 0183.81 84.904 283.713 283.713 0 0131.06 129.054c0 44.869-10.65 89.098-31.06 129.055a219.103 219.103 0 01-83.81 85.995 232.135 232.135 0 01-117.41 30.081c-62.34 0-108.92-18.315-139.73-54.945v47.182h-157.68V231.629h166.05v215.778c31.94-32.344 75.89-48.516 131.84-48.516a235.539 235.539 0 01116.93 29.231zm-80.78 297.407a117.932 117.932 0 0028.02-83.449 115.113 115.113 0 00-28.02-82.114 101.532 101.532 0 00-71.62-29.572c-26.85 0-52.6 10.633-71.63 29.572a115.603 115.603 0 00-27.89 82.114 118.387 118.387 0 0027.89 83.449 100.34 100.34 0 0071.63 30.081 100.304 100.304 0 0071.62-30.081zm643.67-273.397c41.24 35.741 61.9 90.605 61.98 164.593v262.961h-154.65V819.04c-24.26 46.01-70.83 68.974-139.73 68.893a217.366 217.366 0 01-95.09-19.164 140.736 140.736 0 01-60.65-51.913 137.615 137.615 0 01-20.49-74.715 121.252 121.252 0 0112.45-58.741c9-18.227 22.45-33.897 39.09-45.57 34.37-24.744 87.34-37.115 158.9-37.115h94.36c-2.91-50.053-36.39-75.12-100.43-75.201-23.42.11-46.7 3.79-69.01 10.916a184.01 184.01 0 00-59.44 30.202l-55.79-112.681a306.962 306.962 0 0195.58-40.632 455.129 455.129 0 01113.04-14.434c78.52-.323 138.48 17.426 179.88 53.247zm-135.49 316.571a77.505 77.505 0 0031.54-40.996v-41.118h-71.68c-48.52 0-72.78 16.132-72.78 48.516a41.945 41.945 0 004.05 19.496 41.932 41.932 0 0012.57 15.437 71.074 71.074 0 0045.36 13.099 91.545 91.545 0 0050.94-14.434zm290.02-537.074h165.93v648.062h-165.93V231.629zM2435.05 1089.41v611.31h-142.4l-269.87-325.67v325.67h-169.81v-611.31h142.4l269.87 325.79v-325.79h169.81zm595.53 477.76v133.42h-490.74v-611.31h479.34v133.42h-308.2v102.98h271.57v129.3h-271.57v111.83l319.6.36zm1046.25-477.76l-198.31 611.31h-185.09l-117.05-372-122.26 372h-185.09l-198.31-611.31h178.18l123.11 390.44 129.29-390.44h158.9l123.11 393.84 128.44-393.84h165.08zm551.63 392.14v219.17H4455.5v-221.84l-233.12-389.47h182.54L4549.86 1332l145.55-242.59h167.63l-234.58 392.14zm350.78 190.42a312.654 312.654 0 01-122.24-115.1 312.65 312.65 0 010-323.49c29.49-48.8 71.76-88.6 122.24-115.1a389.617 389.617 0 01174.24-41.12c60.48 0 120.13 14.07 174.23 41.12a312.493 312.493 0 01122.35 115.06 312.57 312.57 0 0145.12 161.78c0 57.04-15.6 112.98-45.12 161.78a312.518 312.518 0 01-122.35 115.07 390.813 390.813 0 01-348.47 0zm258.11-124.08a157.591 157.591 0 0059.43-61.49 201.644 201.644 0 0021.83-91.28c0-31.71-7.47-62.98-21.83-91.27a157.724 157.724 0 00-59.43-61.62 171.733 171.733 0 00-83.81-21.83c-29.35 0-58.2 7.51-83.81 21.83a157.68 157.68 0 00-59.44 61.62 201.763 201.763 0 00-21.83 91.27c0 31.72 7.48 62.99 21.83 91.28a156.87 156.87 0 0059.44 61.49 171.715 171.715 0 0083.81 21.84c29.34 0 58.2-7.52 83.81-21.84zm596.52-9.58h-94.36v162.41h-172.96v-611.31h278.97c49.44-1.14 98.55 8.25 144.09 27.53a213.272 213.272 0 0194.37 78.6 215.968 215.968 0 0133.23 120.08c.92 40.74-9.85 80.9-31.05 115.71a209.01 209.01 0 01-88.66 77.26l131.96 192.13h-185.21l-110.38-162.41zm82-289.04c-17.95-15.77-44.72-23.65-80.3-23.65h-96.06v179.02h96.06c35.5 0 62.27-7.68 80.3-23.04a82.063 82.063 0 0021.12-29.89 82.105 82.105 0 006.05-36.09c.7-12.39-1.37-24.78-6.08-36.25a83.122 83.122 0 00-21.09-30.1zm515.24 229.61l-64.53 69.01v152.83h-171.26v-611.31h171.26v254.71l236.64-254.71h190.31l-249.74 270.73 262.84 340.58h-201.1l-174.42-221.84zM61.031 1388.02l467.337 307.11 23.288-641.27v-3.64a3.151 3.151 0 010-1.82c.127-.65.469-1.25.971-1.7a21.762 21.762 0 014.73-7.15c.046-.27.176-.53.372-.72.195-.2.447-.33.719-.37 0-1.22 1.214-1.22 2.426-1.22 1.213 0 1.092-1.21 2.305-1.21a4.105 4.105 0 002.305-1.09c1.213 0 2.304-1.21 3.638-1.21h31.051v-48.52c.023-3.07.598-6.11 1.698-8.976a24.28 24.28 0 015.094-7.52 21.944 21.944 0 017.52-4.972 23.275 23.275 0 018.976-1.82h65.74l14.313-30.445 31.657-68.044 31.778-66.71 16.374-34.083c4.73-5.822 10.674-11.523 15.283-17.345l16.01-471.339 14.677 471.218a262.223 262.223 0 0115.283 17.466l16.374 33.961 31.778 67.803 31.657 66.831 14.313 30.565h70.472c3.03.008 6.03.584 8.85 1.699a23.328 23.328 0 017.64 5.094 22.6 22.6 0 014.98 7.52c1.2 2.795 1.82 5.81 1.82 8.855v48.512h27.04c.29-.12.6-.18.91-.18.32 0 .63.06.91.18.63.13 1.19.47 1.58.97.92.04 1.79.43 2.43 1.1 1.21 0 1.21 1.21 2.3 1.21 1.09 0 1.21 1.21 2.31 1.21l2.42 2.31 1.21 1.21 1.22 1.09c.4.5.69 1.08.85 1.7.23.58.23 1.23 0 1.82v.85c0 1.21 1.21 1.21 1.21 2.3 0 1.09 0 1.22 1.21 2.43v4.61l23.29 641.14 469.16-307.71L822.258 88.137 61.031 1388.02zm654.248 413.85l5.821 4.73 97.034 58.58 97.033-64.28 111.463-723.14H602.113l113.166 724.11z" fill="#fff"/></svg>