<svg width="1355" height="238" viewBox="0 0 1355 238" fill="none" xmlns="http://www.w3.org/2000/svg"><g clip-path="url(#clip0_3_122)"><path d="M0 120.692l73.442 43.136V0L0 120.692z" fill="url(#paint0_linear_3_122)"/><path d="M73 0v163.828l73.442-43.136L73 0z" fill="url(#paint1_linear_3_122)"/><path d="M0 134.635l73.442 102.393v-59.693L0 134.635z" fill="url(#paint2_linear_3_122)"/><path d="M73.442 177.335v59.693l73.442-102.393-73.442 42.7z" fill="url(#paint3_linear_3_122)"/><path d="M229.601 205.672c-1.603 0-2.965-.318-4.087-.956-1.121-.634-1.682-1.431-1.682-2.385 0-2.067 2.084-3.578 6.249-4.532 5.929-1.59 10.095-3.419 12.499-5.487 2.402-2.226 3.606-5.884 3.606-10.973V73.272c0-5.249-1.122-8.986-3.366-11.213-2.083-2.385-6.089-4.214-12.017-5.487-4.167-.795-6.251-2.385-6.251-4.77 0-1.114.481-1.91 1.444-2.386 1.12-.636 2.563-.955 4.326-.955 4.807 0 11.376.16 19.709.477 8.333.319 14.502.478 18.507.478 12.819 0 28.042-.16 45.667-.477 4.968-.16 9.214-.398 12.74-.716 3.685-.318 5.848-.477 6.49-.477 3.364 0 5.207 1.192 5.528 3.578l1.682 10.735c1.443 8.27 2.164 14.314 2.164 18.13 0 1.273-.322 2.307-.963 3.102-.64.795-1.441 1.193-2.403 1.193-1.602 0-2.883-1.114-3.846-3.34a184.131 184.131 0 00-3.845-9.304c-1.122-3.021-2.324-5.169-3.605-6.44-4.487-4.772-10.176-7.158-17.066-7.158h-22.353c-3.044 0-5.769.875-8.171 2.625-2.244 1.749-3.366 4.055-3.366 6.918v46.757c0 3.658 1.843 5.487 5.528 5.487h21.873c4.005 0 6.89-1.034 8.653-3.101 1.923-2.068 3.685-5.487 5.287-10.258.962-3.181 2.483-4.771 4.567-4.771.801 0 1.522.476 2.163 1.431.641.795.962 1.908.962 3.34-.641 6.361-.962 12.484-.962 18.369 0 8.111.241 14.552.722 19.323v1.193c0 2.863-.802 4.294-2.405 4.294-1.12 0-2.242-.557-3.364-1.67-.962-1.273-1.683-2.942-2.163-5.01-1.281-4.612-2.805-7.952-4.567-10.019-1.763-2.227-4.167-3.34-7.212-3.34h-22.352c-2.404 0-4.167.477-5.289 1.431-.96.795-1.441 2.227-1.441 4.294v45.327c0 5.089 1.042 8.667 3.124 10.735 2.244 2.067 5.768 3.1 10.576 3.1H310.6c8.653 0 15.143-1.59 19.469-4.77 4.327-3.34 8.894-9.543 13.7-18.608 1.122-2.068 2.565-3.101 4.326-3.101 1.603.159 2.406 1.511 2.406 4.056 0 5.089-2.486 15.029-7.453 29.819-.96 2.227-2.563 3.339-4.806 3.339l-28.842-.476c-20.512-.317-36.615-.478-48.313-.478-3.044 0-8.091.161-15.143.478a182.27 182.27 0 01-16.343.716zm175.771-.238c-1.603 0-3.045-.319-4.328-.956-1.122-.476-1.681-1.193-1.681-2.147 0-2.385 2.162-4.055 6.488-5.009 6.411-1.273 10.977-3.021 13.7-5.248 2.725-2.386 4.087-6.123 4.087-11.212V84.245c0-9.224-.32-15.347-.961-18.369-.641-3.021-1.763-4.77-3.366-5.248-2.723-.954-7.049-1.431-12.979-1.431h-7.45c-4.648 0-9.134 1.113-13.461 3.34-4.326 2.226-7.692 5.089-10.096 8.588-1.441 2.385-3.364 4.85-5.767 7.395-2.244 2.385-4.327 3.579-6.249 3.579-1.923 0-2.885-1.273-2.885-3.817 0-1.59.481-3.5 1.441-5.726 2.725-5.567 4.728-10.337 6.01-14.314 1.283-4.134 2.244-8.906 2.884-14.313.641-3.817 2.404-5.726 5.289-5.726.801 0 2.002 1.114 3.606 3.34 1.601 2.068 2.803 3.579 3.603 4.533 1.282 1.272 3.686 2.306 7.212 3.101 3.525.795 6.809 1.193 9.854 1.193l88.693-.238c7.53 0 13.699-1.114 18.507-3.34 1.122-.636 2.643-1.75 4.566-3.34 1.282-1.113 2.324-1.909 3.124-2.386.963-.636 2.003-.954 3.125-.954 1.603 0 2.404 1.51 2.404 4.533 0 .795-.24 2.624-.721 5.487l-1.683 6.68c-1.601 5.884-2.404 10.735-2.404 14.551v4.056c0 2.385-.399 4.373-1.202 5.964-.639 1.431-1.601 2.147-2.883 2.147s-2.403-.716-3.366-2.147c-.96-1.432-1.842-3.817-2.643-7.157-1.442-5.248-3.925-9.066-7.451-11.451-3.366-2.385-8.573-3.578-15.624-3.578h-16.343c-3.366 0-5.85.636-7.451 1.908-1.443 1.114-2.484 3.499-3.125 7.157-.64 3.499-.962 9.224-.962 17.176v95.186c0 4.928 1.362 8.588 4.087 10.973 2.723 2.385 7.289 4.294 13.7 5.725 2.242.478 3.845 1.114 4.807 1.909 1.122.636 1.683 1.59 1.683 2.862 0 .954-.561 1.749-1.683 2.385-1.122.478-2.483.716-4.086.716-3.846 0-9.775-.159-17.787-.476-7.371-.319-12.738-.478-16.103-.478-3.205 0-8.653.159-16.345.478-5.768.476-11.698.716-17.785.716zm126.311 0c-1.442 0-2.724-.319-3.846-.956-1.122-.636-1.683-1.431-1.683-2.384 0-1.273.481-2.227 1.444-2.863.96-.795 2.483-1.431 4.566-1.909 5.608-1.273 9.375-2.942 11.296-5.01 2.084-2.226 3.126-5.963 3.126-11.212V73.033c0-5.407-.882-9.145-2.645-11.212-1.602-2.227-5.287-3.976-11.055-5.248-4.007-.636-6.011-2.227-6.011-4.772 0-1.113.481-1.908 1.443-2.385 1.122-.636 2.484-.954 4.087-.954 4.326 0 9.855.159 16.585.477 6.408.318 10.976.477 13.699.477 2.885 0 7.693-.16 14.421-.477 7.371-.318 13.22-.477 17.547-.477 3.364 0 5.047 1.192 5.047 3.578 0 1.272-.48 2.227-1.442 2.863-.8.636-2.324 1.193-4.567 1.67-6.249 1.59-10.496 3.578-12.738 5.964-2.084 2.226-3.125 5.804-3.125 10.735v44.372c0 1.908 1.202 2.863 3.604 2.863h71.865c1.765 0 2.647-1.114 2.647-3.34V73.033c0-4.612-1.12-8.11-3.368-10.496-2.079-2.545-6.167-4.533-12.256-5.964-2.242-.477-3.845-1.034-4.806-1.67-.962-.636-1.443-1.59-1.443-2.863 0-2.386 1.763-3.578 5.288-3.578 4.165 0 10.095.159 17.789.477 7.049.318 12.175.477 15.381.477 2.561 0 6.728-.16 12.496-.477 6.412-.318 11.859-.477 16.346-.477 1.603 0 2.885.318 3.844.954 1.12.477 1.686 1.272 1.686 2.385 0 2.386-2.007 3.977-6.012 4.772-5.608 1.272-9.291 3.1-11.055 5.487-1.763 2.226-2.645 5.884-2.645 10.973V181.1c0 5.249.882 8.986 2.645 11.212 1.926 2.227 5.685 3.898 11.299 5.01 2.08.478 3.606 1.114 4.565 1.909.959.636 1.441 1.59 1.441 2.863 0 .953-.559 1.748-1.679 2.384-1.127.637-2.409.956-3.85.956-5.447 0-10.816-.24-16.102-.716-6.412-.319-11.138-.478-14.183-.478-2.885 0-7.849.159-14.898.478-7.371.317-13.142.476-17.309.476-3.364 0-5.047-1.112-5.047-3.338 0-1.273.401-2.227 1.202-2.865.962-.634 2.483-1.191 4.567-1.669 5.925-1.273 10.098-3.101 12.498-5.487 2.402-2.385 3.606-5.964 3.606-10.735v-45.326c0-2.544-.804-3.817-2.402-3.817h-73.07c-.962 0-1.683.318-2.162.955-.322.477-.482 1.351-.482 2.624v44.61c0 4.772 1.362 8.509 4.085 11.213 2.725 2.704 7.052 4.69 12.979 5.963 2.244.478 3.767 1.035 4.568 1.669.961.638 1.442 1.592 1.442 2.865 0 2.226-1.763 3.338-5.287 3.338-4.167 0-9.935-.159-17.305-.476-7.373-.319-12.58-.478-15.625-.478-3.204 0-8.171.159-14.901.478-5.289.476-10.657.716-16.105.716zm272.252 2.385c-14.1 0-27.317-3.261-39.658-9.782-12.175-6.678-21.948-15.982-29.319-27.91-7.211-11.929-10.817-25.526-10.817-40.794 0-14.632 3.206-28.309 9.613-41.032 6.412-12.724 15.786-22.901 28.121-30.536 12.343-7.793 27.08-11.69 44.224-11.69 14.106 0 27.246 3.34 39.419 10.02 12.344 6.52 22.117 15.746 29.326 27.673 7.373 11.928 11.055 25.526 11.055 40.794 0 14.631-3.206 28.308-9.612 41.031-6.412 12.724-15.787 22.982-28.122 30.775-12.341 7.634-27.078 11.451-44.23 11.451zm3.605-9.544c17.95 0 31.651-5.485 41.101-16.46 9.459-11.133 14.184-26.32 14.184-45.564 0-15.109-2.325-28.707-6.973-40.793-4.642-12.087-11.537-21.63-20.666-28.627-8.975-7.157-19.952-10.736-32.931-10.736-17.788 0-31.405 5.487-40.863 16.461-9.45 10.815-14.176 25.765-14.176 44.849 0 15.109 2.241 28.786 6.727 41.032 4.649 12.245 11.461 21.947 20.428 29.104 9.137 7.156 20.19 10.734 33.169 10.734zm99.677 6.919c-3.2 0-4.803-.874-4.803-2.625 0-1.112.4-1.828 1.197-2.147.806-.476 2.247-1.033 4.326-1.669 3.368-.795 5.93-1.75 7.694-2.863 1.765-1.272 2.647-3.34 2.647-6.202v-51.29c0-5.09-.561-8.986-1.688-11.69-1.12-2.704-3.521-4.532-7.211-5.486-1.597-.478-2.401-1.512-2.401-3.102 0-1.749.721-2.704 2.163-2.863 4.97-1.272 9.137-2.863 12.496-4.771 3.529-1.908 7.373-4.373 11.538-7.395 1.127-.795 2.009-1.193 2.646-1.193.804 0 1.204.557 1.204 1.67l-.483 5.01a120.172 120.172 0 00-.483 4.771 62.167 62.167 0 00-.238 5.487c0 1.59.162 2.545.483 2.862 5.768-5.407 11.776-9.383 18.026-11.927 6.246-2.704 13.141-4.056 20.666-4.056 7.694 0 14.106 3.181 19.232 9.542 5.285 6.362 7.932 14.234 7.932 23.618v50.813c0 2.862.8 4.85 2.4 5.964 1.76.954 4.41 1.987 7.93 3.101 1.93.636 3.29 1.273 4.09 1.909.96.476 1.44 1.271 1.44 2.385 0 1.431-1.6 2.147-4.81 2.147-4.32 0-7.77-.238-10.33-.716-3.206-.319-6.167-.477-8.89-.477-2.562 0-5.608.158-9.136.477-2.563.478-6.091.716-10.578.716-3.2 0-4.803-.716-4.803-2.147 0-1.114.4-1.909 1.197-2.385.966-.636 2.409-1.273 4.326-1.909 3.529-1.114 6.091-2.147 7.694-3.101 1.765-1.114 2.647-3.102 2.647-5.964V139.59c0-6.838-2.003-12.246-6.014-16.221-3.844-3.977-9.051-6.044-15.618-6.203-9.934 0-18.832 3.181-26.68 9.542-1.282 1.272-1.925 3.102-1.925 5.487v57.493c0 2.862.883 4.93 2.646 6.202 1.764 1.113 4.326 2.068 7.687 2.863 1.926.478 3.291 1.033 4.088 1.669.959.478 1.442 1.194 1.442 2.147 0 1.751-1.603 2.625-4.809 2.625-4.165 0-7.609-.238-10.333-.716-3.522-.319-6.567-.477-9.135-.477-2.564 0-5.608.158-9.131.477-2.561.478-6.012.716-10.338.716zm125.783 0c-3.2 0-4.8-.716-4.8-2.147 0-1.112.39-1.909 1.2-2.385.96-.636 2.4-1.273 4.33-1.909 3.52-1.112 6.09-2.147 7.68-3.101 1.77-1.114 2.65-3.102 2.65-5.964V69.454c0-10.019-3.68-15.824-11.06-17.414-.64-.16-1.12-.477-1.44-.954-.32-.637-.48-1.352-.48-2.148 0-1.59.56-2.544 1.68-2.862 6.25-1.432 13.38-3.817 21.39-7.157l5.77-2.147c.65-.318 1.12-.477 1.44-.477.33 0 .56.238.73.716.32.318.48.636.48.954 0 .954-.32 3.976-.97 9.065-.47 5.09-.72 12.882-.72 23.38v119.278c0 2.862.81 4.85 2.41 5.964 1.76.954 4.4 1.989 7.93 3.101 1.92.636 3.28 1.273 4.08 1.909.97.476 1.44 1.273 1.44 2.385 0 1.431-1.59 2.147-4.8 2.147-4.16 0-7.61-.238-10.34-.716-3.52-.317-6.56-.477-9.13-.477-2.56 0-5.6.16-9.13.477-2.57.478-6.01.716-10.34.716zm58.94 0c-3.2 0-4.81-.874-4.81-2.625 0-1.112.41-1.907 1.21-2.385.96-.477 2.4-.953 4.33-1.431 3.68-.954 6.32-1.988 7.93-3.101 1.6-1.272 2.4-3.26 2.4-5.964v-51.767c0-10.497-3.61-16.302-10.82-17.415-1.59-.159-2.4-1.193-2.4-3.101 0-1.749.72-2.704 2.16-2.863 9.78-2.227 18.19-6.202 25.24-11.928 1.44-1.114 2.56-1.67 3.37-1.67.96 0 1.44.397 1.44 1.193 0 1.749-.24 4.771-.72 9.065-.16 1.908-.48 5.487-.97 10.736-.31 5.088-.47 9.223-.47 12.404v55.346c0 2.545.8 4.452 2.4 5.725 1.76 1.272 4.41 2.386 7.93 3.34 1.93.478 3.28.954 4.09 1.431.96.478 1.44 1.273 1.44 2.385 0 1.751-1.6 2.625-4.81 2.625-4 0-7.37-.238-10.09-.716-3.52-.317-6.65-.477-9.38-.477-2.56 0-5.61.16-9.13.477-2.56.478-6.01.716-10.34.716zm19.23-123.812c-3.36 0-6.25-1.113-8.65-3.34-2.25-2.385-3.37-5.248-3.37-8.588 0-3.498 1.12-6.361 3.37-8.588 2.4-2.385 5.29-3.578 8.65-3.578 3.53 0 6.41 1.193 8.66 3.578 2.4 2.227 3.6 5.09 3.6 8.588 0 3.34-1.2 6.203-3.6 8.588-2.25 2.227-5.13 3.34-8.66 3.34zm39.69 123.812c-3.21 0-4.8-.874-4.8-2.625 0-1.112.4-1.828 1.19-2.147.81-.476 2.25-1.033 4.33-1.669 3.37-.795 5.93-1.75 7.69-2.863 1.77-1.272 2.65-3.34 2.65-6.202v-51.29c0-5.09-.57-8.986-1.69-11.69-1.12-2.704-3.52-4.532-7.21-5.486-1.6-.478-2.4-1.512-2.4-3.102 0-1.749.72-2.704 2.17-2.863 4.96-1.272 9.13-2.863 12.49-4.771 3.53-1.908 7.37-4.373 11.54-7.395 1.12-.795 2-1.193 2.64-1.193.8 0 1.21.557 1.21 1.67l-.48 5.01c-.16 1.272-.33 2.862-.49 4.771a60.288 60.288 0 00-.24 5.487c0 1.59.17 2.545.49 2.862 5.77-5.407 11.77-9.383 18.02-11.927 6.25-2.704 13.14-4.056 20.67-4.056 7.69 0 14.1 3.181 19.23 9.542 5.29 6.362 7.93 14.234 7.93 23.618v50.813c0 2.862.8 4.85 2.4 5.964 1.77.954 4.41 1.987 7.94 3.101 1.92.636 3.28 1.273 4.09 1.909.95.476 1.44 1.271 1.44 2.385 0 1.431-1.61 2.147-4.81 2.147-4.33 0-7.77-.238-10.34-.716-3.2-.319-6.16-.477-8.89-.477-2.57 0-5.61.158-9.13.477-2.56.478-6.09.716-10.58.716-3.21 0-4.8-.716-4.8-2.147 0-1.114.4-1.909 1.19-2.385.97-.636 2.41-1.273 4.33-1.909 3.53-1.114 6.09-2.147 7.69-3.101 1.77-1.114 2.65-3.102 2.65-5.964V139.59c0-6.838-2.01-12.246-6.01-16.221-3.85-3.977-9.05-6.044-15.62-6.203-9.94 0-18.83 3.181-26.68 9.542-1.29 1.272-1.93 3.102-1.93 5.487v57.493c0 2.862.89 4.93 2.65 6.202 1.76 1.113 4.33 2.068 7.69 2.863 1.92.478 3.28 1.033 4.08 1.669.96.478 1.45 1.194 1.45 2.147 0 1.751-1.61 2.625-4.81 2.625-4.17 0-7.61-.238-10.34-.716-3.52-.319-6.57-.477-9.13-.477-2.56 0-5.61.158-9.13.477-2.57.478-6.01.716-10.34.716zm167.6 2.863c-8.65 0-16.34-2.147-23.07-6.441-6.57-4.294-11.69-10.337-15.38-18.13-3.68-7.953-5.53-17.097-5.53-27.435 0-8.905 2.08-17.255 6.25-25.048 4.33-7.793 10.02-13.916 17.07-18.369 7.05-4.612 14.74-6.918 23.07-6.918 9.61 0 17.47 2.862 23.55 8.588 6.25 5.566 9.38 12.723 9.38 21.47 0 4.931-2.41 7.395-7.21 7.395h-50.72c-2.24 0-3.84.637-4.81 1.909-.8 1.113-1.19 3.419-1.19 6.918 0 7.475 1.6 14.393 4.8 20.754 3.37 6.362 7.85 11.452 13.46 15.268 5.77 3.658 12.02 5.488 18.75 5.488 9.46 0 17.3-3.579 23.56-10.735.95-1.273 1.84-1.909 2.64-1.909 1.28 0 1.92.795 1.92 2.385 0 3.021-1.44 6.361-4.33 10.019-3.52 4.613-8.17 8.27-13.93 10.974-5.77 2.546-11.86 3.817-18.28 3.817zm-.23-72.283c7.53 0 13.46-.397 17.78-1.193 1.29-.159 1.92-1.908 1.92-5.248 0-4.612-2.08-8.509-6.24-11.689-4.01-3.34-8.82-5.01-14.42-5.01-3.53 0-7.21 1.113-11.06 3.339-3.69 2.068-6.73 4.692-9.13 7.873-2.41 3.181-3.61 6.362-3.61 9.543 0 1.59.96 2.385 2.89 2.385h21.87z" fill="#000"/></g><defs><linearGradient id="paint0_linear_3_122" x1="17.098" y1="137.615" x2="113.906" y2="39.904" gradientUnits="userSpaceOnUse"><stop stop-color="#F02F9F"/><stop offset="1" stop-color="#FFAD00"/></linearGradient><linearGradient id="paint1_linear_3_122" x1="109.771" y1="163.692" x2="109.771" y2="-17.702" gradientUnits="userSpaceOnUse"><stop stop-color="#06FFFF"/><stop offset=".023" stop-color="#07F6FD"/><stop offset=".148" stop-color="#0AC7F2"/><stop offset=".278" stop-color="#0D9FE9"/><stop offset=".41" stop-color="#0F7EE2"/><stop offset=".546" stop-color="#1164DC"/><stop offset=".686" stop-color="#1252D8"/><stop offset=".833" stop-color="#1347D6"/><stop offset="1" stop-color="#1344D5"/></linearGradient><linearGradient id="paint2_linear_3_122" x1="-.044" y1="185.762" x2="73.446" y2="185.762" gradientUnits="userSpaceOnUse"><stop stop-color="#06FFFF"/><stop offset=".108" stop-color="#07F5FD"/><stop offset=".29" stop-color="#09DAF7"/><stop offset=".525" stop-color="#0CAFED"/><stop offset=".799" stop-color="#1074E0"/><stop offset="1" stop-color="#1344D5"/></linearGradient><linearGradient id="paint3_linear_3_122" x1="73.445" y1="185.762" x2="146.979" y2="185.762" gradientUnits="userSpaceOnUse"><stop stop-color="#F02F9F"/><stop offset="1" stop-color="#FFAD00"/></linearGradient><clipPath id="clip0_3_122"><path fill="#fff" d="M0 0h1355v238H0z"/></clipPath></defs></svg>