<svg xmlns="http://www.w3.org/2000/svg" viewBox="0 0 47.175 13.626" height="51.5" width="178.299"><g fill="#f7323f"><path d="M0 4.762c.053-.158.08-.29.132-.45.212-.687.688-1.163 1.27-1.56.953-.688 2.064-1.085 3.175-1.403C5.98.926 7.435.688 8.89.45c.582-.08.661-.105 1.005-.343.027.106.106.211.106.317A3.084 3.084 0 019.34 2.25c-.291.37-.741.45-1.164.53-.688.105-1.403.21-2.09.317-.106.026-.212 0-.239.158a670.135 670.135 0 01-.714 3.308 12.679 12.679 0 00-.053 4.789c.132.688.238 1.349.37 2.037 0 .08 0 .132.027.212-.027 0-.027.026-.053.026a2.385 2.385 0 01-.238-.265c-.688-1.005-1.19-2.09-1.561-3.254-.238-.714-.397-1.455-.344-2.222.08-1.35.529-2.62 1.138-3.837.132-.238.264-.503.423-.794-.397.08-.741.133-1.058.238a28.72 28.72 0 00-1.985.635 2.443 2.443 0 00-.794.477C.476 5.027.476 5.636.98 6.085c.106.08.185.16.291.239-.318.105-.82-.16-1.005-.53-.08-.185-.133-.397-.212-.582C0 5.106 0 4.922 0 4.762zm35.613.106c-.132.318-.37.53-.74.556-.398.026-.636-.212-.53-.609.053-.238.159-.476.212-.688.026-.105.026-.238.052-.343-.026 0-.052-.027-.079-.027-.053.053-.132.106-.185.185-.318.45-.635.873-.953 1.323l-.238.318c-.29.37-.767.317-1.005-.106a1.329 1.329 0 01-.08-.9c.292-1.005.794-1.905 1.562-2.646.529-.502.978-.529 1.375.344.053.08.053.186.08.318-.45-.265-.635-.265-1.006.08-.529.476-.9 1.11-1.137 1.772-.027.08.053.212.079.317.08-.026.185-.052.265-.132l1.031-1.111c.106-.106.239-.212.397-.291.291-.159.635.026.609.37-.027.238-.106.45-.185.688-.053.185-.16.344-.212.53-.026.052-.026.185 0 .185.053.026.159.053.212.026.158-.08.29-.212.45-.317.026.052.026.105.026.158zM21.67 0c-.398.45-.794.847-1.165 1.323-.344.45-.661.952-.794 1.534-.026.16-.026.292-.052.45-.556-.29-.794-1.111-.45-1.72.158-.264.37-.502.608-.714A3.948 3.948 0 0121.457 0h.212zm-6.668 8.572c-.08-.37-.053-.74.132-1.058.159-.29.37-.555.556-.82.344-.423.714-.847 1.032-1.27.158-.212.317-.476.45-.714.026-.08.026-.212-.027-.265-.053-.053-.212-.08-.291-.053-.265.132-.53.265-.74.45-.795.688-1.297 1.534-1.588 2.513a10.61 10.61 0 00-.45 4.18c0 .107.026.212.053.318.026.106.053.212.106.37-.08-.079-.133-.105-.16-.132-.555-.661-.872-1.402-.925-2.275-.133-1.72.264-3.36.794-5 .052-.16.132-.345.158-.503.027-.159.027-.318.027-.503.29-.08.714.106.873.423.185.344.159.688.026 1.059.027 0 .053.026.053.026.053-.053.106-.08.159-.132.291-.291.609-.582.9-.9.079-.08.158-.132.238-.185.397-.265.793-.291 1.137-.053.397.291.582.662.477 1.164a2.4 2.4 0 01-.609 1.244c-.317.344-.661.661-1.005.979-.45.37-.9.74-1.376 1.137zm-5.477-.555c.08-.45.159-.9.291-1.35.238-.846.609-1.613 1.058-2.354.106-.186.238-.238.397-.08.291.265.582.53.873.82a.28.28 0 00.133.053c.37.027.555.16.635.53.105.476.026.926-.106 1.375-.212.741-.582 1.376-1.059 1.985a2.452 2.452 0 01-.37.37c-.582.476-1.376.291-1.667-.423-.106-.318-.106-.609-.185-.926zm.9.397c.052.238.079.423.132.582.053.132.159.185.29.08.107-.08.186-.186.265-.292.503-.661.9-1.376 1.191-2.17.08-.238.159-.476.159-.74.026-.37-.212-.53-.53-.344a1.14 1.14 0 00-.423.37c-.264.424-.555.873-.767 1.35-.132.396-.212.82-.317 1.164zm16.457-4.922c-.503-.29-.741-.264-1.165.133-.608.582-1.005 1.323-1.322 2.09-.027.053-.027.159-.027.212.027.185.185.238.318.105.053-.052.105-.132.158-.185.37-.397.741-.82 1.112-1.217a1.6 1.6 0 01.423-.317c.344-.186.74.026.714.423 0 .212-.079.423-.158.635-.08.238-.212.45-.291.688-.027.106.026.238.026.344a1.98 1.98 0 00.37-.106c.053-.026.08-.08.133-.132.026.37-.291.661-.662.661-.397 0-.608-.211-.555-.608.026-.238.105-.477.185-.741.026-.08.08-.159.08-.238 0-.106-.027-.238-.027-.344-.08.053-.185.106-.238.185-.344.503-.715.979-1.059 1.482-.106.132-.185.29-.29.423-.345.423-.874.37-1.138-.106-.186-.344-.186-.714-.106-1.085.211-.873.661-1.614 1.164-2.354.212-.318.476-.583.74-.847a1.23 1.23 0 01.398-.238c.238-.106.476-.08.661.106.318.317.53.635.556 1.031zm1.746-1.534c.503.08.794.476.767.979-.026.423-.211.794-.397 1.138-.053.079-.079.185-.132.29.026.027.053.027.08.054.079-.08.158-.186.238-.265.37-.45.74-.926 1.11-1.376.16-.185.371-.344.636-.344.37 0 .635.185.661.556.027.317 0 .635-.08.952-.079.37-.264.715-.37 1.085-.052.159-.105.291-.132.45 0 .08 0 .212.053.264.053.053.212.027.265 0 .132-.079.238-.211.37-.317.106.344-.238.794-.661.847-.662.053-1.112-.477-.953-1.165.106-.45.291-.9.45-1.349.053-.132.106-.238.106-.37 0-.08-.027-.133-.027-.212-.08.026-.158 0-.211.053-.16.159-.344.317-.477.503a18.44 18.44 0 00-1.72 2.751c-.132.265-.158.265-.396.106-.318-.238-.397-.556-.291-.9.158-.529.37-1.058.582-1.587.158-.37.344-.714.502-1.085.106-.37.239-.688.027-1.058z"/><path d="M6.694 10.345c-.423-.317-.635-.688-.662-1.138-.026-.502 0-1.031.053-1.534.08-.688.186-1.35.265-2.037.026-.16-.026-.344-.053-.53.45-.211.74.08 1.058 1.059.106-.133.16-.291.265-.397.265-.318.53-.635.82-.953.212-.211.476-.264.767-.158.292.105.45.37.477.661.053.609-.556 1.614-1.138 1.852H8.44c.027-.106.053-.185.08-.264.079-.291.158-.609.185-.9 0-.132-.08-.317-.185-.37-.16-.106-.291.053-.397.158-.45.556-.715 1.165-.926 1.826-.265.767-.397 1.587-.45 2.381 0 .133-.027.212-.053.344zM23.072 6.27c-.106.662-.847 1.376-1.508 1.482-.106.027-.239.027-.344.027-.635-.08-1.032-.503-1.032-1.19 0-.398.053-.795.158-1.165a6.977 6.977 0 011.085-2.117c.133-.158.265-.344.424-.476.37-.317.793-.238 1.005.212.238.529.291 1.058-.026 1.587-.053.08-.106.132-.186.238-.026-.185-.026-.344-.053-.476-.053-.212-.185-.265-.344-.132-.793.635-1.27 1.455-1.402 2.487-.026.264.053.344.318.397.502.08.952-.106 1.349-.397.185-.132.344-.318.556-.476zm-4.154-2.619c.185-.08.397-.026.608.133.344.264.45.635.344 1.031-.159.53-.344 1.032-.529 1.561-.132.37-.238.715-.344 1.085-.026.08.027.265.08.291.079.027.238 0 .317-.08a3.08 3.08 0 00.397-.422c-.08.767-.582 1.137-1.085.873-.344-.186-.45-.477-.476-.82-.053-.688.159-1.323.344-1.958.106-.397.238-.794.344-1.191.026-.159 0-.318 0-.503z"/></g><path d="M19.87 12.197h-1.005V9.71c0-.106-.053-.238-.133-.29-.079-.054-.185-.133-.29-.133-.106 0-.239.053-.292.132-.026.027-.132.132-.132.291v2.91c0 .106.053.239.132.292a.42.42 0 00.291.132h1.43c.105 0 .237-.053.29-.132a.421.421 0 00.133-.291c0-.106-.053-.239-.133-.291-.053-.053-.132-.133-.29-.133zm2.17-2.91c-.053 0-.159 0-.265.106-.026.026-.053.08-.08.106l-.026.026-.688 1.931-.687-1.852c-.027-.105-.08-.158-.133-.185-.106-.106-.211-.106-.264-.106-.106 0-.238.053-.291.133a.415.415 0 00-.133.29v.106l.053.053 1.085 2.858c.026.106.08.159.132.185a.342.342 0 00.265.106c.053 0 .159 0 .264-.106.027-.026.053-.08.08-.106l.026-.026 1.085-2.99V9.71c0-.159-.08-.264-.132-.29a.374.374 0 00-.291-.133zm5 .185c-.026 0-.079 0-.132.053-.026.026-.026.053-.026.053s0 .026-.027.026l-.873 2.355-.582-2.275c0-.08-.053-.133-.08-.159-.026-.026-.079-.08-.158-.08-.08 0-.132.054-.159.08v.026c0 .027-.026.027-.026.053-.027.027-.027.053-.027.08l-.555 2.275-.874-2.328c0-.053-.052-.08-.079-.106-.053-.053-.106-.053-.132-.053-.053 0-.106.027-.159.08-.026.026-.08.079-.08.158v.027l.027.026 1.085 2.91c0 .053.053.08.08.106.052.053.105.053.158.053.053 0 .106 0 .159-.053.026-.026.08-.079.08-.105l.555-2.09.555 2.09c0 .052.053.079.08.105.053.053.106.053.159.053.052 0 .105 0 .158-.053.027-.026.027-.053.027-.053s0-.026.026-.026l1.085-2.91v-.08c0-.08-.053-.132-.08-.159-.079-.026-.105-.079-.185-.079zm2.593.45c.053 0 .106-.027.16-.08.026-.026.078-.079.078-.158 0-.053-.026-.106-.079-.159-.026-.026-.08-.08-.159-.08H28.1c-.053 0-.106.027-.159.08-.026.026-.08.08-.08.159v2.91c0 .053.027.106.08.159.026.026.08.08.159.08h1.534c.053 0 .106-.027.16-.08.026-.027.078-.08.078-.159 0-.053-.026-.106-.079-.159-.026-.026-.08-.079-.159-.079h-1.296v-1.032h.847c.052 0 .105-.026.158-.08.027-.026.08-.079.08-.158 0-.053-.027-.106-.08-.159-.026-.026-.08-.08-.158-.08h-.847V9.87h1.296zm3.017.053a1.748 1.748 0 00-.53-.37 2.082 2.082 0 00-.661-.133h-.873c-.053 0-.106.027-.159.08-.026.026-.08.079-.08.158v2.91c0 .054.027.106.08.16.027.026.08.079.159.079h.873c.238 0 .45-.053.661-.133.186-.079.37-.211.53-.37.158-.159.29-.344.37-.53.08-.21.132-.422.132-.66 0-.239-.053-.45-.132-.662a1.9 1.9 0 00-.37-.53zm0 1.164c0 .185-.027.344-.106.476a1.221 1.221 0 01-.238.397 1.92 1.92 0 01-.397.291c-.133.08-.291.106-.477.106h-.635V9.922h.635c.186 0 .344.026.477.106.132.053.29.132.397.238.105.132.185.238.264.423.053.106.08.238.08.45zm3.201-1.164a1.748 1.748 0 00-.53-.37 2.071 2.071 0 00-.66-.133h-.874c-.053 0-.106.027-.158.08-.027.026-.08.079-.08.158v2.91c0 .054.027.106.08.16.026.026.079.079.158.079h.873c.239 0 .45-.053.662-.133.185-.079.37-.185.529-.37.159-.159.291-.344.37-.53.08-.21.133-.422.133-.66 0-.239-.053-.45-.133-.662a1.21 1.21 0 00-.37-.53zm.053 1.164c0 .185-.027.344-.106.476a1.221 1.221 0 01-.238.397 1.893 1.893 0 01-.397.291c-.132.08-.29.106-.476.106h-.635V9.922h.635c.185 0 .344.026.476.106.132.053.291.132.397.238.106.132.185.238.265.423.052.106.079.238.079.45zm1.164-1.667c-.053 0-.106.027-.159.08-.026.026-.079.079-.079.158v2.91c0 .054.026.106.08.16.026.026.079.079.158.079.053 0 .106-.027.159-.08.026-.026.08-.079.08-.158V9.71c0-.054-.027-.107-.08-.16-.053-.026-.08-.079-.159-.079zm3.175 0c-.053 0-.106.027-.159.08-.026.026-.079.079-.079.158v2.17l-1.614-2.302-.053-.053c-.053-.053-.106-.053-.132-.053-.053 0-.106.027-.159.08-.026.026-.08.079-.08.158v2.91c0 .054.027.106.08.16.027.026.08.079.159.079.053 0 .106-.027.159-.08.026-.026.079-.079.079-.158v-2.17l1.587 2.249c0 .026.027.053.053.08.027.026.053.052.133.052.053 0 .105-.026.158-.08.027-.026.08-.078.08-.158v-2.91c0-.053-.027-.106-.08-.159-.026 0-.053-.053-.132-.053zm3.942 1.746h-.9c-.052 0-.105.027-.158.08-.026.026-.08.08-.08.158 0 .053.027.106.08.16.027.026.08.079.159.079h.053v-.027h.476c-.053.106-.08.159-.132.238a.75.75 0 01-.265.238.915.915 0 01-.317.186c-.133.026-.265.052-.397.052-.185 0-.344-.026-.477-.105-.132-.053-.264-.16-.37-.238-.08-.08-.159-.212-.265-.37-.079-.133-.105-.292-.105-.477s.026-.344.105-.476c.053-.133.133-.291.239-.397.079-.08.211-.159.37-.265.132-.08.291-.106.476-.106s.318.053.503.133c.159.079.317.185.476.37a.365.365 0 00.106.08.2.2 0 00.106.026c.08 0 .132-.053.159-.08.026-.026.079-.105.079-.158 0-.027 0-.106-.026-.133a1.822 1.822 0 00-.583-.502 1.499 1.499 0 00-.767-.185c-.238 0-.45.052-.661.132a2.27 2.27 0 00-.53.344 1.692 1.692 0 00-.37.529 2.08 2.08 0 00-.132.661c0 .239.053.45.132.662.08.185.212.37.344.529.132.132.291.265.53.37.237.08.45.133.66.133.212 0 .345-.053.53-.08l.053-.026c.211-.053.397-.185.503-.265.132-.106.238-.238.37-.423s.185-.344.212-.53v-.052c0-.053-.027-.106-.08-.159 0-.053-.026-.106-.106-.106zm2.858.238a.788.788 0 00-.476-.476 4.307 4.307 0 00-.344-.159l-.238-.079c-.106-.026-.186-.053-.239-.106h-.026c-.053-.026-.132-.053-.185-.106-.053-.053-.053-.079-.053-.132 0-.106 0-.159.053-.212.053-.079.08-.105.132-.132.053-.026.08-.026.106-.053.026 0 .053-.026.106-.026.08-.027.106-.027.185-.027h.159c.053 0 .08 0 .132.027h.026c.027 0 .053.026.08.026a.082.082 0 00.053.027c.026 0 .053.053.08.106l.026.026c.026.08.105.106.185.106.053 0 .106-.027.159-.08.026-.026.079-.079.079-.158 0-.053 0-.106-.053-.159l-.08-.08c-.052-.052-.079-.105-.132-.132a.75.75 0 00-.238-.158.773.773 0 00-.238-.053c-.08-.027-.159-.027-.238-.027-.132 0-.265.027-.37.053a.635.635 0 00-.318.185.83.83 0 00-.212.291.934.934 0 00-.079.37.53.53 0 00.106.345c.08.08.159.158.264.211l.344.16c.053 0 .106.026.16.052.052.026.105.053.158.053.026 0 .053.026.053.026.026.027.08.027.08.053l-.027.08.08.026c.105.027.158.08.21.132.08.053.107.106.133.16.026.079.053.158.053.21 0 .107 0 .16-.053.239-.053.08-.106.159-.132.185-.08.053-.159.106-.212.132-.106.027-.185.053-.238.053-.053 0-.106 0-.159-.026-.026 0-.08-.027-.106-.027-.026-.026-.079-.026-.105-.026-.027 0-.027-.026-.053-.026-.053-.027-.08-.053-.133-.08l-.132-.132c-.026-.08-.106-.106-.185-.106-.053 0-.106.027-.159.08-.026.026-.08.079-.08.158 0 .027 0 .08.027.106.053.08.106.159.212.238.053.027.08.053.132.08.053.026.08.052.132.079.08.053.212.08.318.106.106.026.212.026.317.026.133 0 .291-.026.424-.08.106-.052.211-.131.317-.21.133-.107.212-.239.265-.318a.967.967 0 00.08-.397c-.08-.185-.08-.291-.133-.424z" fill="#fbb347"/></svg>