<?xml version="1.0" encoding="UTF-8"?>
<svg width="165" height="38" version="1.1" viewBox="0 0 43.656 10.054" xmlns="http://www.w3.org/2000/svg">
<g>
<g transform="scale(.98303 1.0173)" stroke-width=".13899" aria-label="Nashid Ahmed">
<path d="m1.3458 5.0339v-3.7335h0.73345l1.528 2.4932v-2.4932h0.70034v3.7335h-0.75637l-1.5051-2.4347v2.4347z" style="font-variant-caps:small-caps;font-variant-east-asian:normal;font-variant-ligatures:normal;font-variant-numeric:normal"/>
<path d="m8.3642 5.0339h-0.79457l-0.18591-0.46605h-1.202l-0.17827 0.46605h-0.77675l1.2173-2.8982h0.66978zm-1.5968-2.1189q-0.012733 0.071308-0.028014 0.12734-0.012733 0.053481-0.03056 0.11206-0.017827 0.056028-0.043294 0.12479-0.02292 0.066214-0.061121 0.16299l-0.191 0.53226h0.73091l-0.20119-0.54754q-0.038201-0.094228-0.063668-0.16044-0.02292-0.068761-0.040747-0.12224-0.017827-0.056028-0.033107-0.10951-0.012734-0.053481-0.028014-0.1197z" style="font-variant-caps:small-caps;font-variant-east-asian:normal;font-variant-ligatures:normal;font-variant-numeric:normal"/>
<path d="m9.7697 4.0229q0.061121 0.23939 0.19864 0.36163 0.14007 0.1197 0.36418 0.1197 0.10187 0 0.19355-0.017827 0.09168-0.017827 0.16044-0.056028 0.06876-0.040747 0.10951-0.10187 0.04075-0.063668 0.04075-0.15026 0-0.084041-0.05348-0.14516-0.05348-0.061121-0.17572-0.099322-0.05093-0.017827-0.16554-0.045841-0.11461-0.028013-0.29797-0.071307-0.23175-0.056028-0.41511-0.12988-0.18336-0.076401-0.28014-0.1579-0.29542-0.24958-0.29542-0.60612 0-0.17318 0.073854-0.32598 0.073855-0.1528 0.21902-0.26486 0.14516-0.1146 0.35654-0.17827 0.21392-0.066215 0.48897-0.066215 0.5399 0 0.84296 0.21138 0.30306 0.21138 0.34635 0.65705l-0.736 0.03056q-0.04329-0.16554-0.15026-0.24703-0.10696-0.081495-0.30815-0.081495-0.20374 0-0.31579 0.061121-0.10951 0.061121-0.10951 0.16808 0 0.048387 0.025467 0.086588 0.028014 0.035654 0.094228 0.068761t0.17572 0.066215q0.11206 0.03056 0.28014 0.068761 0.21902 0.050934 0.38201 0.10442 0.16299 0.050934 0.26995 0.10442 0.21902 0.11206 0.3489 0.30561 0.13243 0.19355 0.13243 0.47114 0 0.12479-0.04075 0.24703-0.0382 0.1197-0.11206 0.2292-0.07386 0.10696-0.18336 0.19355-0.10696 0.086588-0.24448 0.14262-0.2674 0.10696-0.66214 0.10696-0.56792 0-0.88116-0.24448-0.31069-0.24703-0.39474-0.75128z" style="font-variant-caps:small-caps;font-variant-east-asian:normal;font-variant-ligatures:normal;font-variant-numeric:normal"/>
<path d="m12.673 5.0339v-2.8982h0.73345v1.09h1.0645v-1.09h0.73345v2.8982h-0.73345v-1.2148h-1.0645v1.2148z" style="font-variant-caps:small-caps;font-variant-east-asian:normal;font-variant-ligatures:normal;font-variant-numeric:normal"/>
<path d="m16.482 5.0339v-2.8982h0.73345v2.8982z" style="font-variant-caps:small-caps;font-variant-east-asian:normal;font-variant-ligatures:normal;font-variant-numeric:normal"/>
<path d="m18.489 2.1358h1.1511q0.18336 0 0.33107 0.012734 0.14771 0.012733 0.24703 0.040747 0.20883 0.058574 0.36927 0.18336 0.16299 0.12479 0.2725 0.30815 0.10951 0.18082 0.16554 0.41766 0.05857 0.2343 0.05857 0.51189 0 0.38455-0.11715 0.66469-0.1146 0.28014-0.30815 0.4635-0.06876 0.066215-0.16044 0.1197-0.09168 0.053481-0.21392 0.094228-0.1197 0.038201-0.2725 0.061121-0.15026 0.020374-0.33871 0.020374h-1.1842zm0.73345 0.59338v1.7114h0.37182q0.18591 0 0.30306-0.020374 0.1197-0.02292 0.191-0.066214 0.07385-0.045841 0.1146-0.1146 0.04075-0.068761 0.07131-0.16044 0.05603-0.17063 0.05603-0.49406 0-0.22411-0.03056-0.37182-0.02801-0.15026-0.08659-0.24448-0.05603-0.094228-0.14007-0.14262-0.0815-0.048388-0.18846-0.071308-0.05857-0.012734-0.17572-0.017827-0.1146-0.00764-0.29032-0.00764z" style="font-variant-caps:small-caps;font-variant-east-asian:normal;font-variant-ligatures:normal;font-variant-numeric:normal"/>
<path d="m27.785 5.0339h-0.82004l-0.32598-0.84805h-1.4924l-0.30815 0.84805h-0.79967l1.4542-3.7335h0.79712zm-1.388-1.4771-0.51444-1.3854-0.50425 1.3854z" style="font-variant-caps:small-caps;font-variant-east-asian:normal;font-variant-ligatures:normal;font-variant-numeric:normal"/>
<path d="m28.694 5.0339v-2.8982h0.73345v1.09h1.0645v-1.09h0.73345v2.8982h-0.73345v-1.2148h-1.0645v1.2148z" style="font-variant-caps:small-caps;font-variant-east-asian:normal;font-variant-ligatures:normal;font-variant-numeric:normal"/>
<path d="m34.134 4.14q0.01019-0.068761 0.01783-0.12479 0.01019-0.058574 0.02292-0.1197 0.01273-0.061121 0.03056-0.12988 0.01783-0.071308 0.04584-0.16554l0.46859-1.4644h1.0238v2.8982h-0.66724v-2.0908h-0.010187l-0.65196 2.0908h-0.5781l-0.6545-2.0908h-0.01019v2.0908h-0.66723v-2.8982h1.0238l0.47369 1.4745q0.02547 0.091682 0.04329 0.16299 0.01783 0.068761 0.03056 0.12988 0.01273 0.058574 0.02292 0.11715 0.01019 0.056028 0.02292 0.1197z" style="font-variant-caps:small-caps;font-variant-east-asian:normal;font-variant-ligatures:normal;font-variant-numeric:normal"/>
<path d="m37.016 5.0339v-2.8982h2.3124v0.59338h-1.579v0.48897h1.4695v0.59338h-1.4695v0.62904h1.635v0.59338z" style="font-variant-caps:small-caps;font-variant-east-asian:normal;font-variant-ligatures:normal;font-variant-numeric:normal"/>
<path d="m40.469 2.1358h1.1511q0.18336 0 0.33107 0.012734 0.14771 0.012733 0.24703 0.040747 0.20883 0.058574 0.36927 0.18336 0.16299 0.12479 0.2725 0.30815 0.10951 0.18082 0.16554 0.41766 0.05858 0.2343 0.05858 0.51189 0 0.38455-0.11715 0.66469-0.1146 0.28014-0.30815 0.4635-0.06876 0.066215-0.16044 0.1197-0.09168 0.053481-0.21392 0.094228-0.1197 0.038201-0.2725 0.061121-0.15026 0.020374-0.33871 0.020374h-1.1842zm0.73345 0.59338v1.7114h0.37182q0.18591 0 0.30306-0.020374 0.1197-0.02292 0.191-0.066214 0.07385-0.045841 0.1146-0.1146 0.04075-0.068761 0.07131-0.16044 0.05603-0.17063 0.05603-0.49406 0-0.22411-0.03056-0.37182-0.02801-0.15026-0.08659-0.24448-0.05603-0.094228-0.14007-0.14262-0.08149-0.048388-0.18846-0.071308-0.05858-0.012734-0.17572-0.017827-0.1146-0.00764-0.29032-0.00764z" style="font-variant-caps:small-caps;font-variant-east-asian:normal;font-variant-ligatures:normal;font-variant-numeric:normal"/>
</g>
<g transform="scale(.96727 1.0338)" stroke-width=".11628" aria-label="FULL STACK DEVELOPER">
<path d="m1.421 8.4521v-2.2477h1.5409v0.38025h-1.0871v0.53204h0.93835v0.38025h-0.93835v0.95522z"/>
<path d="m3.4901 6.2043h0.45384v1.2174q0 0.28978 0.016866 0.37565 0.029132 0.13799 0.13799 0.22232 0.11039 0.082796 0.30052 0.082796 0.19319 0 0.29132-0.078196 0.098128-0.079729 0.11806-0.19472 0.019932-0.11499 0.019932-0.38178v-1.2435h0.45384v1.1806q0 0.40478-0.036798 0.5719-0.036798 0.16712-0.13646 0.28212-0.098128 0.11499-0.26372 0.18399-0.16559 0.067463-0.43238 0.067463-0.32198 0-0.48911-0.073596-0.16559-0.075129-0.26219-0.19319-0.096595-0.11959-0.12726-0.24992-0.044464-0.19319-0.044464-0.57037z"/>
<path d="m5.9302 8.4521v-2.2293h0.45384v1.8506h1.1285v0.37871z"/>
<path d="m8.0053 8.4521v-2.2293h0.45384v1.8506h1.1285v0.37871z"/>
<path d="m10.924 7.7207 0.44158-0.042931q0.03986 0.22232 0.16099 0.32658 0.12266 0.10426 0.32965 0.10426 0.21926 0 0.32965-0.091995 0.11193-0.093528 0.11193-0.21772 0-0.079729-0.04753-0.13493-0.046-0.05673-0.16252-0.098128-0.07973-0.027598-0.36338-0.098128-0.36491-0.090462-0.51211-0.22232-0.20699-0.18552-0.20699-0.45231 0-0.17172 0.0966-0.32045 0.09813-0.15026 0.28058-0.22845 0.18399-0.078196 0.44311-0.078196 0.42318 0 0.6363 0.18552 0.21466 0.18552 0.22539 0.49524l-0.45384 0.019932q-0.02913-0.17326-0.12573-0.24839-0.09506-0.076663-0.28672-0.076663-0.19779 0-0.30972 0.081262-0.07206 0.052131-0.07206 0.13953 0 0.079729 0.06746 0.13646 0.08586 0.072063 0.41704 0.15026 0.33118 0.078196 0.48911 0.16252 0.15946 0.082796 0.24839 0.22845 0.09046 0.14413 0.09046 0.35725 0 0.19319-0.10733 0.36185-0.10733 0.16866-0.30358 0.25145-0.19626 0.081262-0.48911 0.081262-0.42624 0-0.6547-0.19626-0.22846-0.19779-0.27292-0.57497z"/>
<path d="m13.798 8.4521v-1.8675h-0.66696v-0.38025h1.7862v0.38025h-0.66543v1.8675z"/>
<path d="m17.162 8.4521h-0.49371l-0.19626-0.51057h-0.89849l-0.18552 0.51057h-0.48144l0.87549-2.2477h0.47991zm-0.83562-0.88929-0.30972-0.83409-0.30358 0.83409z"/>
<path d="m18.998 7.6257 0.44004 0.13953q-0.1012 0.36798-0.33732 0.54737-0.23459 0.17786-0.59644 0.17786-0.44771 0-0.73596-0.30512-0.28825-0.30665-0.28825-0.83716 0-0.56117 0.28978-0.87089 0.28978-0.31125 0.76203-0.31125 0.41244 0 0.67003 0.24379 0.15332 0.14413 0.22999 0.41398l-0.44924 0.10733q-0.039864-0.17479-0.16712-0.27599-0.12573-0.10119-0.30665-0.10119-0.24992 0-0.40631 0.17939-0.15486 0.17939-0.15486 0.5811 0 0.42624 0.15332 0.60717 0.15332 0.18092 0.39865 0.18092 0.18092 0 0.31125-0.11499t0.18706-0.36185z"/>
<path d="m19.99 8.4521v-2.2477h0.45384v0.99815l0.91688-0.99815h0.61023l-0.84636 0.87549 0.89235 1.3723h-0.58724l-0.6179-1.0549-0.36798 0.37565v0.67923z"/>
<path d="m23.434 6.2043h0.82949q0.28059 0 0.42778 0.042931 0.19779 0.058264 0.33885 0.20699 0.14106 0.14873 0.21466 0.36491 0.0736 0.21466 0.0736 0.53051 0 0.27752-0.069 0.47837-0.08433 0.24532-0.24072 0.39711-0.11806 0.11499-0.31892 0.17939-0.15026 0.047531-0.40171 0.047531h-0.85402zm0.45384 0.38025v1.4888h0.33885q0.19012 0 0.27445-0.021465 0.11039-0.027599 0.18246-0.093528 0.0736-0.06593 0.11959-0.21619 0.046-0.15179 0.046-0.41244t-0.046-0.40018q-0.046-0.13953-0.12879-0.21772-0.0828-0.078196-0.21006-0.10579-0.09506-0.021466-0.37258-0.021466z"/>
<path d="m25.86 8.4521v-2.2477h1.6666v0.38025h-1.2128v0.49831h1.1285v0.37871h-1.1285v0.61177h1.2557v0.37871z"/>
<path d="m28.687 8.4521-0.80342-2.2477h0.49217l0.56884 1.6636 0.55044-1.6636h0.48144l-0.80496 2.2477z"/>
<path d="m30.366 8.4521v-2.2477h1.6666v0.38025h-1.2128v0.49831h1.1285v0.37871h-1.1285v0.61177h1.2557v0.37871z"/>
<path d="m32.631 8.4521v-2.2293h0.45384v1.8506h1.1285v0.37871z"/>
<path d="m34.602 7.342q0-0.34345 0.10273-0.5765 0.07666-0.17172 0.20852-0.30818 0.13339-0.13646 0.29132-0.20239 0.21006-0.088929 0.48451-0.088929 0.49677 0 0.79422 0.30818 0.29898 0.30818 0.29898 0.85709 0 0.5443-0.29592 0.85249-0.29592 0.30665-0.79116 0.30665-0.50137 0-0.79729-0.30512-0.29592-0.30665-0.29592-0.84329zm0.46764-0.015333q0 0.38178 0.17632 0.57957 0.17632 0.19626 0.44771 0.19626t0.44464-0.19472q0.17479-0.19626 0.17479-0.58724 0-0.38638-0.17019-0.5765-0.16866-0.19012-0.44924-0.19012t-0.45231 0.19319q-0.17172 0.19166-0.17172 0.57957z"/>
<path d="m37.291 8.4521v-2.2477h0.7283q0.41398 0 0.5397 0.033732 0.19319 0.050597 0.32352 0.22079 0.13033 0.16866 0.13033 0.43698 0 0.20699-0.07513 0.34805t-0.19166 0.22232q-0.11499 0.079729-0.23459 0.10579-0.16252 0.032198-0.47071 0.032198h-0.29592v0.84789zm0.45384-1.8675v0.63783h0.24839q0.26832 0 0.35878-0.035265 0.09046-0.035265 0.14106-0.11039 0.05213-0.075129 0.05213-0.17479 0-0.12266-0.07206-0.20239-0.07206-0.079729-0.18246-0.099661-0.08126-0.015333-0.32658-0.015333z"/>
<path d="m39.544 8.4521v-2.2477h1.6666v0.38025h-1.2128v0.49831h1.1285v0.37871h-1.1285v0.61177h1.2557v0.37871z"/>
<path d="m41.798 8.4521v-2.2477h0.95522q0.36031 0 0.52284 0.06133 0.16406 0.059797 0.26219 0.21466 0.09813 0.15486 0.09813 0.35418 0 0.25299-0.14873 0.41858-0.14872 0.16406-0.44464 0.20699 0.14719 0.085862 0.24225 0.18859 0.0966 0.10273 0.25912 0.36491l0.27445 0.43851h-0.54277l-0.32812-0.48911q-0.17479-0.26219-0.23919-0.32965-0.0644-0.068996-0.13646-0.093528-0.07206-0.026065-0.22845-0.026065h-0.092v0.93835zm0.45384-1.2971h0.33578q0.32658 0 0.40784-0.027599 0.08126-0.027598 0.12726-0.095062 0.046-0.067463 0.046-0.16866 0-0.11346-0.06133-0.18246-0.0598-0.07053-0.17019-0.088929-0.0552-0.00767-0.33118-0.00767h-0.35418z"/>
</g>
</g>
</svg>
