<?xml version="1.0" encoding="UTF-8" standalone="no"?>
<svg
   xmlns:dc="http://purl.org/dc/elements/1.1/"
   xmlns:cc="http://creativecommons.org/ns#"
   xmlns:rdf="http://www.w3.org/1999/02/22-rdf-syntax-ns#"
   xmlns:svg="http://www.w3.org/2000/svg"
   xmlns="http://www.w3.org/2000/svg"
   xmlns:sodipodi="http://sodipodi.sourceforge.net/DTD/sodipodi-0.dtd"
   xmlns:inkscape="http://www.inkscape.org/namespaces/inkscape"
   sodipodi:docname="trop-logo.svg"
   inkscape:version="1.0 (4035a4fb49, 2020-05-01)"
   id="svg1452"
   version="1.1"
   viewBox="0 0 47.174999 13.626"
   height="13.626mm"
   width="47.174999mm">
  <defs
     id="defs1446" />
  <sodipodi:namedview
     inkscape:window-maximized="0"
     inkscape:window-y="0"
     inkscape:window-x="192"
     inkscape:window-height="1030"
     inkscape:window-width="1424"
     showgrid="false"
     inkscape:document-rotation="0"
     inkscape:current-layer="layer1"
     inkscape:document-units="mm"
     inkscape:cy="560"
     inkscape:cx="400"
     inkscape:zoom="0.35"
     inkscape:pageshadow="2"
     inkscape:pageopacity="0.0"
     borderopacity="1.0"
     bordercolor="#666666"
     pagecolor="#ffffff"
     id="base" />
  <metadata
     id="metadata1449">
    <rdf:RDF>
      <cc:Work
         rdf:about="">
        <dc:format>image/svg+xml</dc:format>
        <dc:type
           rdf:resource="http://purl.org/dc/dcmitype/StillImage" />
        <dc:title></dc:title>
      </cc:Work>
    </rdf:RDF>
  </metadata>
  <g
     id="layer1"
     inkscape:groupmode="layer"
     inkscape:label="Layer 1">
    <g
       id="g560"
       transform="matrix(0.26458333,0,0,0.26458333,0,180.71041)">
      <path
         fill="#f7323f"
         d="m 0,-665 c 0.2,-0.6 0.3,-1.1 0.5,-1.7 0.8,-2.6 2.6,-4.4 4.8,-5.9 3.6,-2.6 7.8,-4.1 12,-5.3 5.3,-1.6 10.8,-2.5 16.3,-3.4 2.2,-0.3 2.5,-0.4 3.8,-1.3 0.1,0.4 0.4,0.8 0.4,1.2 -0.1,2.5 -0.9,4.9 -2.5,6.9 -1.1,1.4 -2.8,1.7 -4.4,2 -2.6,0.4 -5.3,0.8 -7.9,1.2 -0.4,0.1 -0.8,0 -0.9,0.6 -0.9,4.2 -1.8,8.4 -2.7,12.5 -1.2,6 -1.3,12.1 -0.2,18.1 0.5,2.6 0.9,5.1 1.4,7.7 0,0.3 0,0.5 0.1,0.8 -0.1,0 -0.1,0.1 -0.2,0.1 -0.3,-0.3 -0.6,-0.6 -0.9,-1 -2.6,-3.8 -4.5,-7.9 -5.9,-12.3 -0.9,-2.7 -1.5,-5.5 -1.3,-8.4 0.3,-5.1 2,-9.9 4.3,-14.5 0.5,-0.9 1,-1.9 1.6,-3 -1.5,0.3 -2.8,0.5 -4,0.9 -2.5,0.7 -5,1.5 -7.5,2.4 -1.1,0.4 -2.1,1 -3,1.8 -2,1.6 -2,3.9 -0.1,5.6 0.4,0.3 0.7,0.6 1.1,0.9 -1.2,0.4 -3.1,-0.6 -3.8,-2 -0.3,-0.7 -0.5,-1.5 -0.8,-2.2 C 0,-663.7 0,-664.4 0,-665 Z"
         id="path540" />
      <path
         fill="#f7323f"
         d="m 134.6,-664.6 c -0.5,1.2 -1.4,2 -2.8,2.1 -1.5,0.1 -2.4,-0.8 -2,-2.3 0.2,-0.9 0.6,-1.8 0.8,-2.6 0.1,-0.4 0.1,-0.9 0.2,-1.3 -0.1,0 -0.2,-0.1 -0.3,-0.1 -0.2,0.2 -0.5,0.4 -0.7,0.7 -1.2,1.7 -2.4,3.3 -3.6,5 -0.3,0.4 -0.6,0.8 -0.9,1.2 -1.1,1.4 -2.9,1.2 -3.8,-0.4 -0.5,-1.1 -0.6,-2.3 -0.3,-3.4 1.1,-3.8 3,-7.2 5.9,-10 2,-1.9 3.7,-2 5.2,1.3 0.2,0.3 0.2,0.7 0.3,1.2 -1.7,-1 -2.4,-1 -3.8,0.3 -2,1.8 -3.4,4.2 -4.3,6.7 -0.1,0.3 0.2,0.8 0.3,1.2 0.3,-0.1 0.7,-0.2 1,-0.5 1.3,-1.4 2.6,-2.8 3.9,-4.2 0.4,-0.4 0.9,-0.8 1.5,-1.1 1.1,-0.6 2.4,0.1 2.3,1.4 -0.1,0.9 -0.4,1.7 -0.7,2.6 -0.2,0.7 -0.6,1.3 -0.8,2 -0.1,0.2 -0.1,0.7 0,0.7 0.2,0.1 0.6,0.2 0.8,0.1 0.6,-0.3 1.1,-0.8 1.7,-1.2 0.1,0.2 0.1,0.4 0.1,0.6 z"
         id="path542" />
      <path
         fill="#f7323f"
         d="m 81.9,-683 c -1.5,1.7 -3,3.2 -4.4,5 -1.3,1.7 -2.5,3.6 -3,5.8 -0.1,0.6 -0.1,1.1 -0.2,1.7 -2.1,-1.1 -3,-4.2 -1.7,-6.5 0.6,-1 1.4,-1.9 2.3,-2.7 1.8,-1.6 3.9,-2.7 6.2,-3.3 0.4,0 0.6,0 0.8,0 z"
         id="path544" />
      <path
         fill="#f7323f"
         d="m 56.7,-650.6 c -0.3,-1.4 -0.2,-2.8 0.5,-4 0.6,-1.1 1.4,-2.1 2.1,-3.1 1.3,-1.6 2.7,-3.2 3.9,-4.8 0.6,-0.8 1.2,-1.8 1.7,-2.7 0.1,-0.3 0.1,-0.8 -0.1,-1 -0.2,-0.2 -0.8,-0.3 -1.1,-0.2 -1,0.5 -2,1 -2.8,1.7 -3,2.6 -4.9,5.8 -6,9.5 -1.6,5.1 -2.2,10.4 -1.7,15.8 0,0.4 0.1,0.8 0.2,1.2 0.1,0.4 0.2,0.8 0.4,1.4 -0.3,-0.3 -0.5,-0.4 -0.6,-0.5 -2.1,-2.5 -3.3,-5.3 -3.5,-8.6 -0.5,-6.5 1,-12.7 3,-18.9 0.2,-0.6 0.5,-1.3 0.6,-1.9 0.1,-0.6 0.1,-1.2 0.1,-1.9 1.1,-0.3 2.7,0.4 3.3,1.6 0.7,1.3 0.6,2.6 0.1,4 0.1,0 0.2,0.1 0.2,0.1 0.2,-0.2 0.4,-0.3 0.6,-0.5 1.1,-1.1 2.3,-2.2 3.4,-3.4 0.3,-0.3 0.6,-0.5 0.9,-0.7 1.5,-1 3,-1.1 4.3,-0.2 1.5,1.1 2.2,2.5 1.8,4.4 -0.3,1.8 -1.1,3.4 -2.3,4.7 -1.2,1.3 -2.5,2.5 -3.8,3.7 -1.7,1.4 -3.4,2.8 -5.2,4.3 z"
         id="path546" />
      <path
         fill="#f7323f"
         d="m 36,-652.7 c 0.3,-1.7 0.6,-3.4 1.1,-5.1 0.9,-3.2 2.3,-6.1 4,-8.9 0.4,-0.7 0.9,-0.9 1.5,-0.3 1.1,1 2.2,2 3.3,3.1 0.1,0.1 0.4,0.2 0.5,0.2 1.4,0.1 2.1,0.6 2.4,2 0.4,1.8 0.1,3.5 -0.4,5.2 -0.8,2.8 -2.2,5.2 -4,7.5 -0.4,0.5 -0.9,1 -1.4,1.4 -2.2,1.8 -5.2,1.1 -6.3,-1.6 -0.4,-1.2 -0.4,-2.3 -0.7,-3.5 z m 3.4,1.5 c 0.2,0.9 0.3,1.6 0.5,2.2 0.2,0.5 0.6,0.7 1.1,0.3 0.4,-0.3 0.7,-0.7 1,-1.1 1.9,-2.5 3.4,-5.2 4.5,-8.2 0.3,-0.9 0.6,-1.8 0.6,-2.8 0.1,-1.4 -0.8,-2 -2,-1.3 -0.6,0.3 -1.2,0.8 -1.6,1.4 -1,1.6 -2.1,3.3 -2.9,5.1 -0.5,1.5 -0.8,3.1 -1.2,4.4 z"
         id="path548" />
      <path
         fill="#f7323f"
         d="m 101.6,-669.8 c -1.9,-1.1 -2.8,-1 -4.4,0.5 -2.3,2.2 -3.8,5 -5,7.9 -0.1,0.2 -0.1,0.6 -0.1,0.8 0.1,0.7 0.7,0.9 1.2,0.4 0.2,-0.2 0.4,-0.5 0.6,-0.7 1.4,-1.5 2.8,-3.1 4.2,-4.6 0.5,-0.5 1,-0.9 1.6,-1.2 1.3,-0.7 2.8,0.1 2.7,1.6 0,0.8 -0.3,1.6 -0.6,2.4 -0.3,0.9 -0.8,1.7 -1.1,2.6 -0.1,0.4 0.1,0.9 0.1,1.3 0.5,-0.1 0.9,-0.2 1.4,-0.4 0.2,-0.1 0.3,-0.3 0.5,-0.5 0.1,1.4 -1.1,2.5 -2.5,2.5 -1.5,0 -2.3,-0.8 -2.1,-2.3 0.1,-0.9 0.4,-1.8 0.7,-2.8 0.1,-0.3 0.3,-0.6 0.3,-0.9 0,-0.4 -0.1,-0.9 -0.1,-1.3 -0.3,0.2 -0.7,0.4 -0.9,0.7 -1.3,1.9 -2.7,3.7 -4,5.6 -0.4,0.5 -0.7,1.1 -1.1,1.6 -1.3,1.6 -3.3,1.4 -4.3,-0.4 -0.7,-1.3 -0.7,-2.7 -0.4,-4.1 0.8,-3.3 2.5,-6.1 4.4,-8.9 0.8,-1.2 1.8,-2.2 2.8,-3.2 0.4,-0.4 1,-0.7 1.5,-0.9 0.9,-0.4 1.8,-0.3 2.5,0.4 1.2,1.2 2,2.4 2.1,3.9 z"
         id="path550" />
      <path
         fill="#f7323f"
         d="m 108.2,-675.6 c 1.9,0.3 3,1.8 2.9,3.7 -0.1,1.6 -0.8,3 -1.5,4.3 -0.2,0.3 -0.3,0.7 -0.5,1.1 0.1,0.1 0.2,0.1 0.3,0.2 0.3,-0.3 0.6,-0.7 0.9,-1 1.4,-1.7 2.8,-3.5 4.2,-5.2 0.6,-0.7 1.4,-1.3 2.4,-1.3 1.4,0 2.4,0.7 2.5,2.1 0.1,1.2 0,2.4 -0.3,3.6 -0.3,1.4 -1,2.7 -1.4,4.1 -0.2,0.6 -0.4,1.1 -0.5,1.7 0,0.3 0,0.8 0.2,1 0.2,0.2 0.8,0.1 1,0 0.5,-0.3 0.9,-0.8 1.4,-1.2 0.4,1.3 -0.9,3 -2.5,3.2 -2.5,0.2 -4.2,-1.8 -3.6,-4.4 0.4,-1.7 1.1,-3.4 1.7,-5.1 0.2,-0.5 0.4,-0.9 0.4,-1.4 0,-0.3 -0.1,-0.5 -0.1,-0.8 -0.3,0.1 -0.6,0 -0.8,0.2 -0.6,0.6 -1.3,1.2 -1.8,1.9 -2.5,3.3 -4.6,6.7 -6.5,10.4 -0.5,1 -0.6,1 -1.5,0.4 -1.2,-0.9 -1.5,-2.1 -1.1,-3.4 0.6,-2 1.4,-4 2.2,-6 0.6,-1.4 1.3,-2.7 1.9,-4.1 0.4,-1.4 0.9,-2.6 0.1,-4 z"
         id="path552" />
      <path
         fill="#f7323f"
         d="m 25.3,-643.9 c -1.6,-1.2 -2.4,-2.6 -2.5,-4.3 -0.1,-1.9 0,-3.9 0.2,-5.8 0.3,-2.6 0.7,-5.1 1,-7.7 0.1,-0.6 -0.1,-1.3 -0.2,-2 1.7,-0.8 2.8,0.3 4,4 0.4,-0.5 0.6,-1.1 1,-1.5 1,-1.2 2,-2.4 3.1,-3.6 0.8,-0.8 1.8,-1 2.9,-0.6 1.1,0.4 1.7,1.4 1.8,2.5 0.2,2.3 -2.1,6.1 -4.3,7 -0.1,0 -0.2,0 -0.4,0 0.1,-0.4 0.2,-0.7 0.3,-1 0.3,-1.1 0.6,-2.3 0.7,-3.4 0,-0.5 -0.3,-1.2 -0.7,-1.4 -0.6,-0.4 -1.1,0.2 -1.5,0.6 -1.7,2.1 -2.7,4.4 -3.5,6.9 -1,2.9 -1.5,6 -1.7,9 0,0.5 -0.1,0.8 -0.2,1.3 z"
         id="path554" />
      <path
         fill="#f7323f"
         d="m 87.2,-659.3 c -0.4,2.5 -3.2,5.2 -5.7,5.6 -0.4,0.1 -0.9,0.1 -1.3,0.1 -2.4,-0.3 -3.9,-1.9 -3.9,-4.5 0,-1.5 0.2,-3 0.6,-4.4 0.9,-2.9 2.3,-5.6 4.1,-8 0.5,-0.6 1,-1.3 1.6,-1.8 1.4,-1.2 3,-0.9 3.8,0.8 0.9,2 1.1,4 -0.1,6 -0.2,0.3 -0.4,0.5 -0.7,0.9 -0.1,-0.7 -0.1,-1.3 -0.2,-1.8 -0.2,-0.8 -0.7,-1 -1.3,-0.5 -3,2.4 -4.8,5.5 -5.3,9.4 -0.1,1 0.2,1.3 1.2,1.5 1.9,0.3 3.6,-0.4 5.1,-1.5 0.7,-0.5 1.3,-1.2 2.1,-1.8 z"
         id="path556" />
      <path
         fill="#f7323f"
         d="m 71.5,-669.2 c 0.7,-0.3 1.5,-0.1 2.3,0.5 1.3,1 1.7,2.4 1.3,3.9 -0.6,2 -1.3,3.9 -2,5.9 -0.5,1.4 -0.9,2.7 -1.3,4.1 -0.1,0.3 0.1,1 0.3,1.1 0.3,0.1 0.9,0 1.2,-0.3 0.5,-0.4 1,-1 1.5,-1.6 -0.3,2.9 -2.2,4.3 -4.1,3.3 -1.3,-0.7 -1.7,-1.8 -1.8,-3.1 -0.2,-2.6 0.6,-5 1.3,-7.4 0.4,-1.5 0.9,-3 1.3,-4.5 0.1,-0.6 0,-1.2 0,-1.9 z"
         id="path558" />
    </g>
    <g
       id="g582"
       transform="matrix(0.26458333,0,0,0.26458333,0,180.71041)">
      <path
         fill="#fbb347"
         d="m 75.1,-636.9 h -3.8 v -9.4 c 0,-0.4 -0.2,-0.9 -0.5,-1.1 -0.3,-0.2 -0.7,-0.5 -1.1,-0.5 -0.4,0 -0.9,0.2 -1.1,0.5 -0.1,0.1 -0.5,0.5 -0.5,1.1 v 11 c 0,0.4 0.2,0.9 0.5,1.1 0.1,0.1 0.5,0.5 1.1,0.5 h 5.4 c 0.4,0 0.9,-0.2 1.1,-0.5 0.1,-0.1 0.5,-0.5 0.5,-1.1 0,-0.4 -0.2,-0.9 -0.5,-1.1 -0.2,-0.2 -0.5,-0.5 -1.1,-0.5 z"
         id="path562" />
      <path
         fill="#fbb347"
         d="m 83.3,-647.9 c -0.2,0 -0.6,0 -1,0.4 -0.1,0.1 -0.2,0.3 -0.3,0.4 l -0.1,0.1 -2.6,7.3 -2.6,-7 c -0.1,-0.4 -0.3,-0.6 -0.5,-0.7 -0.4,-0.4 -0.8,-0.4 -1,-0.4 -0.4,0 -0.9,0.2 -1.1,0.5 -0.1,0.1 -0.5,0.5 -0.5,1.1 v 0.4 l 0.2,0.2 4.1,10.8 c 0.1,0.4 0.3,0.6 0.5,0.7 0.4,0.4 0.8,0.4 1,0.4 0.2,0 0.6,0 1,-0.4 0.1,-0.1 0.2,-0.3 0.3,-0.4 l 0.1,-0.1 4.1,-11.3 v -0.4 c 0,-0.6 -0.3,-1 -0.5,-1.1 -0.2,-0.2 -0.5,-0.5 -1.1,-0.5 z"
         id="path564" />
      <path
         fill="#fbb347"
         d="m 102.2,-647.2 c -0.1,0 -0.3,0 -0.5,0.2 -0.1,0.1 -0.1,0.2 -0.1,0.2 0,0 0,0.1 -0.1,0.1 l -3.3,8.9 -2.2,-8.6 c 0,-0.3 -0.2,-0.5 -0.3,-0.6 -0.1,-0.1 -0.3,-0.3 -0.6,-0.3 -0.3,0 -0.5,0.2 -0.6,0.3 v 0.1 c 0,0.1 -0.1,0.1 -0.1,0.2 -0.1,0.1 -0.1,0.2 -0.1,0.3 l -2.1,8.6 -3.3,-8.8 c 0,-0.2 -0.2,-0.3 -0.3,-0.4 -0.2,-0.2 -0.4,-0.2 -0.5,-0.2 -0.2,0 -0.4,0.1 -0.6,0.3 -0.1,0.1 -0.3,0.3 -0.3,0.6 v 0.1 l 0.1,0.1 4.1,11 c 0,0.2 0.2,0.3 0.3,0.4 0.2,0.2 0.4,0.2 0.6,0.2 0.2,0 0.4,0 0.6,-0.2 0.1,-0.1 0.3,-0.3 0.3,-0.4 l 2.1,-7.9 2.1,7.9 c 0,0.2 0.2,0.3 0.3,0.4 0.2,0.2 0.4,0.2 0.6,0.2 0.2,0 0.4,0 0.6,-0.2 0.1,-0.1 0.1,-0.2 0.1,-0.2 0,0 0,-0.1 0.1,-0.1 l 4.1,-11 v -0.3 c 0,-0.3 -0.2,-0.5 -0.3,-0.6 -0.3,-0.1 -0.4,-0.3 -0.7,-0.3 z"
         id="path566" />
      <path
         fill="#fbb347"
         d="m 112,-645.5 c 0.2,0 0.4,-0.1 0.6,-0.3 0.1,-0.1 0.3,-0.3 0.3,-0.6 0,-0.2 -0.1,-0.4 -0.3,-0.6 -0.1,-0.1 -0.3,-0.3 -0.6,-0.3 h -5.8 c -0.2,0 -0.4,0.1 -0.6,0.3 -0.1,0.1 -0.3,0.3 -0.3,0.6 v 11 c 0,0.2 0.1,0.4 0.3,0.6 0.1,0.1 0.3,0.3 0.6,0.3 h 5.8 c 0.2,0 0.4,-0.1 0.6,-0.3 0.1,-0.1 0.3,-0.3 0.3,-0.6 0,-0.2 -0.1,-0.4 -0.3,-0.6 -0.1,-0.1 -0.3,-0.3 -0.6,-0.3 h -4.9 v -3.9 h 3.2 c 0.2,0 0.4,-0.1 0.6,-0.3 0.1,-0.1 0.3,-0.3 0.3,-0.6 0,-0.2 -0.1,-0.4 -0.3,-0.6 -0.1,-0.1 -0.3,-0.3 -0.6,-0.3 h -3.2 v -3.7 h 4.9 z"
         id="path568" />
      <path
         fill="#fbb347"
         d="m 123.4,-645.3 c -0.6,-0.6 -1.3,-1.1 -2,-1.4 -0.9,-0.3 -1.7,-0.5 -2.5,-0.5 h -3.3 c -0.2,0 -0.4,0.1 -0.6,0.3 -0.1,0.1 -0.3,0.3 -0.3,0.6 v 11 c 0,0.2 0.1,0.4 0.3,0.6 0.1,0.1 0.3,0.3 0.6,0.3 h 3.3 c 0.9,0 1.7,-0.2 2.5,-0.5 0.7,-0.3 1.4,-0.8 2,-1.4 0.6,-0.6 1.1,-1.3 1.4,-2 0.3,-0.8 0.5,-1.6 0.5,-2.5 0,-0.9 -0.2,-1.7 -0.5,-2.5 -0.4,-0.8 -0.8,-1.4 -1.4,-2 z m 0,4.4 c 0,0.7 -0.1,1.3 -0.4,1.8 -0.2,0.5 -0.5,1.1 -0.9,1.5 -0.5,0.5 -1,0.8 -1.5,1.1 -0.5,0.3 -1.1,0.4 -1.8,0.4 h -2.4 v -9.4 h 2.4 c 0.7,0 1.3,0.1 1.8,0.4 0.5,0.2 1.1,0.5 1.5,0.9 0.4,0.5 0.7,0.9 1,1.6 0.2,0.4 0.3,0.9 0.3,1.7 z"
         id="path570" />
      <path
         fill="#fbb347"
         d="m 135.5,-645.3 c -0.6,-0.6 -1.3,-1.1 -2,-1.4 -0.9,-0.3 -1.7,-0.5 -2.5,-0.5 h -3.3 c -0.2,0 -0.4,0.1 -0.6,0.3 -0.1,0.1 -0.3,0.3 -0.3,0.6 v 11 c 0,0.2 0.1,0.4 0.3,0.6 0.1,0.1 0.3,0.3 0.6,0.3 h 3.3 c 0.9,0 1.7,-0.2 2.5,-0.5 0.7,-0.3 1.4,-0.7 2,-1.4 0.6,-0.6 1.1,-1.3 1.4,-2 0.3,-0.8 0.5,-1.6 0.5,-2.5 0,-0.9 -0.2,-1.7 -0.5,-2.5 -0.3,-0.8 -0.7,-1.4 -1.4,-2 z m 0.2,4.4 c 0,0.7 -0.1,1.3 -0.4,1.8 -0.2,0.5 -0.5,1.1 -0.9,1.5 -0.5,0.5 -1,0.8 -1.5,1.1 -0.5,0.3 -1.1,0.4 -1.8,0.4 h -2.4 v -9.4 h 2.4 c 0.7,0 1.3,0.1 1.8,0.4 0.5,0.2 1.1,0.5 1.5,0.9 0.4,0.5 0.7,0.9 1,1.6 0.2,0.4 0.3,0.9 0.3,1.7 z"
         id="path572" />
      <path
         fill="#fbb347"
         d="m 140.1,-647.2 c -0.2,0 -0.4,0.1 -0.6,0.3 -0.1,0.1 -0.3,0.3 -0.3,0.6 v 11 c 0,0.2 0.1,0.4 0.3,0.6 0.1,0.1 0.3,0.3 0.6,0.3 0.2,0 0.4,-0.1 0.6,-0.3 0.1,-0.1 0.3,-0.3 0.3,-0.6 v -11 c 0,-0.2 -0.1,-0.4 -0.3,-0.6 -0.2,-0.1 -0.3,-0.3 -0.6,-0.3 z"
         id="path574" />
      <path
         fill="#fbb347"
         d="m 152.1,-647.2 c -0.2,0 -0.4,0.1 -0.6,0.3 -0.1,0.1 -0.3,0.3 -0.3,0.6 v 8.2 l -6.1,-8.7 -0.2,-0.2 c -0.2,-0.2 -0.4,-0.2 -0.5,-0.2 -0.2,0 -0.4,0.1 -0.6,0.3 -0.1,0.1 -0.3,0.3 -0.3,0.6 v 11 c 0,0.2 0.1,0.4 0.3,0.6 0.1,0.1 0.3,0.3 0.6,0.3 0.2,0 0.4,-0.1 0.6,-0.3 0.1,-0.1 0.3,-0.3 0.3,-0.6 v -8.2 l 6,8.5 c 0,0.1 0.1,0.2 0.2,0.3 0.1,0.1 0.2,0.2 0.5,0.2 0.2,0 0.4,-0.1 0.6,-0.3 0.1,-0.1 0.3,-0.3 0.3,-0.6 v -11 c 0,-0.2 -0.1,-0.4 -0.3,-0.6 -0.1,0 -0.2,-0.2 -0.5,-0.2 z"
         id="path576" />
      <path
         fill="#fbb347"
         d="m 167,-640.6 h -3.4 c -0.2,0 -0.4,0.1 -0.6,0.3 -0.1,0.1 -0.3,0.3 -0.3,0.6 0,0.2 0.1,0.4 0.3,0.6 0.1,0.1 0.3,0.3 0.6,0.3 h 0.2 v -0.1 h 1.8 c -0.2,0.4 -0.3,0.6 -0.5,0.9 -0.3,0.4 -0.6,0.7 -1,0.9 -0.3,0.3 -0.7,0.5 -1.2,0.7 -0.5,0.1 -1,0.2 -1.5,0.2 -0.7,0 -1.3,-0.1 -1.8,-0.4 -0.5,-0.2 -1,-0.6 -1.4,-0.9 -0.3,-0.3 -0.6,-0.8 -1,-1.4 -0.3,-0.5 -0.4,-1.1 -0.4,-1.8 0,-0.7 0.1,-1.3 0.4,-1.8 0.2,-0.5 0.5,-1.1 0.9,-1.5 0.3,-0.3 0.8,-0.6 1.4,-1 0.5,-0.3 1.1,-0.4 1.8,-0.4 0.7,0 1.2,0.2 1.9,0.5 0.6,0.3 1.2,0.7 1.8,1.4 0.1,0.1 0.2,0.2 0.4,0.3 0.2,0.1 0.3,0.1 0.4,0.1 0.3,0 0.5,-0.2 0.6,-0.3 0.1,-0.1 0.3,-0.4 0.3,-0.6 0,-0.1 0,-0.4 -0.1,-0.5 -0.5,-0.7 -1.3,-1.4 -2.2,-1.9 -0.9,-0.5 -1.8,-0.7 -2.9,-0.7 -0.9,0 -1.7,0.2 -2.5,0.5 -0.7,0.3 -1.4,0.8 -2,1.3 -0.5,0.5 -1,1.1 -1.4,2 -0.3,0.9 -0.5,1.7 -0.5,2.5 0,0.9 0.2,1.7 0.5,2.5 0.3,0.7 0.8,1.4 1.3,2 0.5,0.5 1.1,1 2,1.4 0.9,0.3 1.7,0.5 2.5,0.5 0.8,0 1.3,-0.2 2,-0.3 l 0.2,-0.1 c 0.8,-0.2 1.5,-0.7 1.9,-1 0.5,-0.4 0.9,-0.9 1.4,-1.6 0.5,-0.7 0.7,-1.3 0.8,-2 v -0.2 c 0,-0.2 -0.1,-0.4 -0.3,-0.6 0,-0.2 -0.1,-0.4 -0.4,-0.4 z"
         id="path578" />
      <path
         fill="#fbb347"
         d="m 177.8,-639.7 c -0.2,-0.5 -0.4,-0.8 -0.7,-1.1 -0.3,-0.3 -0.6,-0.5 -1.1,-0.7 -0.4,-0.2 -0.8,-0.4 -1.3,-0.6 l -0.9,-0.3 c -0.4,-0.1 -0.7,-0.2 -0.9,-0.4 h -0.1 c -0.2,-0.1 -0.5,-0.2 -0.7,-0.4 -0.2,-0.2 -0.2,-0.3 -0.2,-0.5 0,-0.4 0,-0.6 0.2,-0.8 0.2,-0.3 0.3,-0.4 0.5,-0.5 0.2,-0.1 0.3,-0.1 0.4,-0.2 0.1,0 0.2,-0.1 0.4,-0.1 0.3,-0.1 0.4,-0.1 0.7,-0.1 h 0.6 c 0.2,0 0.3,0 0.5,0.1 h 0.1 c 0.1,0 0.2,0.1 0.3,0.1 0.1,0.1 0.2,0.1 0.2,0.1 0.1,0 0.2,0.2 0.3,0.4 l 0.1,0.1 c 0.1,0.3 0.4,0.4 0.7,0.4 0.2,0 0.4,-0.1 0.6,-0.3 0.1,-0.1 0.3,-0.3 0.3,-0.6 0,-0.2 0,-0.4 -0.2,-0.6 -0.1,-0.1 -0.2,-0.2 -0.3,-0.3 -0.2,-0.2 -0.3,-0.4 -0.5,-0.5 -0.2,-0.2 -0.6,-0.5 -0.9,-0.6 -0.3,-0.1 -0.6,-0.2 -0.9,-0.2 -0.3,-0.1 -0.6,-0.1 -0.9,-0.1 -0.5,0 -1,0.1 -1.4,0.2 -0.5,0.1 -0.9,0.4 -1.2,0.7 -0.3,0.3 -0.6,0.6 -0.8,1.1 -0.2,0.5 -0.3,0.9 -0.3,1.4 0,0.5 0.1,0.9 0.4,1.3 0.3,0.3 0.6,0.6 1,0.8 l 1.3,0.6 c 0.2,0 0.4,0.1 0.6,0.2 0.2,0.1 0.4,0.2 0.6,0.2 0.1,0 0.2,0.1 0.2,0.1 0.1,0.1 0.3,0.1 0.3,0.2 l -0.1,0.3 0.3,0.1 c 0.4,0.1 0.6,0.3 0.8,0.5 0.3,0.2 0.4,0.4 0.5,0.6 0.1,0.3 0.2,0.6 0.2,0.8 0,0.4 0,0.6 -0.2,0.9 -0.2,0.3 -0.4,0.6 -0.5,0.7 -0.3,0.2 -0.6,0.4 -0.8,0.5 -0.4,0.1 -0.7,0.2 -0.9,0.2 -0.2,0 -0.4,0 -0.6,-0.1 -0.1,0 -0.3,-0.1 -0.4,-0.1 -0.1,-0.1 -0.3,-0.1 -0.4,-0.1 -0.1,0 -0.1,-0.1 -0.2,-0.1 -0.2,-0.1 -0.3,-0.2 -0.5,-0.3 -0.2,-0.2 -0.4,-0.4 -0.5,-0.5 -0.1,-0.3 -0.4,-0.4 -0.7,-0.4 -0.2,0 -0.4,0.1 -0.6,0.3 -0.1,0.1 -0.3,0.3 -0.3,0.6 0,0.1 0,0.3 0.1,0.4 0.2,0.3 0.4,0.6 0.8,0.9 0.2,0.1 0.3,0.2 0.5,0.3 0.2,0.1 0.3,0.2 0.5,0.3 0.3,0.2 0.8,0.3 1.2,0.4 0.4,0.1 0.8,0.1 1.2,0.1 0.5,0 1.1,-0.1 1.6,-0.3 0.4,-0.2 0.8,-0.5 1.2,-0.8 0.5,-0.4 0.8,-0.9 1,-1.2 0.2,-0.4 0.3,-1 0.3,-1.5 -0.3,-0.7 -0.3,-1.1 -0.5,-1.6 z"
         id="path580" />
    </g>
  </g>
</svg>
